<svg width="641" height="90" viewBox="0 0 641 90" fill="none" xmlns="http://www.w3.org/2000/svg">
<path d="M5.00781 5.5C5.51181 6.004 5.76381 6.616 5.76381 7.336C5.76381 8.056 5.51181 8.68 5.00781 9.208C4.50381 9.712 3.89181 9.964 3.17181 9.964C2.45181 9.964 1.82781 9.712 1.29981 9.208C0.795813 8.68 0.543813 8.056 0.543813 7.336C0.543813 6.16 1.05981 4.924 2.09181 3.628C3.14781 2.332 4.63581 1.408 6.55581 0.856L6.87981 1.612C5.79981 1.972 4.87581 2.428 4.10781 2.98C3.36381 3.508 2.88381 3.952 2.66781 4.312L2.34381 4.888C2.55981 4.792 2.83581 4.744 3.17181 4.744C3.89181 4.744 4.50381 4.996 5.00781 5.5ZM11.7398 5.5C12.2438 6.004 12.4958 6.616 12.4958 7.336C12.4958 8.056 12.2438 8.68 11.7398 9.208C11.2358 9.712 10.6238 9.964 9.90381 9.964C9.18381 9.964 8.55981 9.712 8.03181 9.208C7.52781 8.68 7.27581 8.056 7.27581 7.336C7.27581 6.16 7.79181 4.924 8.82381 3.628C9.87981 2.332 11.3678 1.408 13.2878 0.856L13.6118 1.612C12.5318 1.972 11.6078 2.428 10.8398 2.98C10.0958 3.508 9.61581 3.952 9.39981 4.312L9.07581 4.888C9.29181 4.792 9.56781 4.744 9.90381 4.744C10.6238 4.744 11.2358 4.996 11.7398 5.5ZM32.7486 6.58C35.0766 6.58 37.0686 6.124 38.7246 5.212L39.1206 5.86C37.5606 6.772 35.8446 7.264 33.9726 7.336C32.4606 8.776 31.1766 11.176 30.1206 14.536C29.0886 17.896 28.5726 21.472 28.5726 25.264C28.5726 27.592 28.9926 29.236 29.8326 30.196C30.6966 31.156 31.7046 31.636 32.8566 31.636C33.6246 31.636 34.3686 31.456 35.0886 31.096C35.8086 30.76 36.3606 30.424 36.7446 30.088C37.1526 29.752 37.6806 29.26 38.3286 28.612C37.9446 27.46 37.7526 25.672 37.7526 23.248C37.7526 20.8 38.1726 18.172 39.0126 15.364C39.8526 12.532 40.9686 10.216 42.3606 8.416C43.7526 6.616 45.1926 5.716 46.6806 5.716C47.4006 5.716 47.9406 5.908 48.3006 6.292C48.6846 6.676 48.8766 7.372 48.8766 8.38C48.8766 10.42 48.2166 13.132 46.8966 16.516C45.6006 19.9 43.9206 22.984 41.8566 25.768C42.0726 27.616 42.6606 28.984 43.6206 29.872C44.5806 30.76 45.8046 31.204 47.2926 31.204C50.0286 31.204 52.4886 28.588 54.6726 23.356C56.3526 19.324 57.1926 15.196 57.1926 10.972C57.1926 6.748 56.3766 3.82 54.7446 2.188L55.2846 1.648C57.0846 3.448 57.9846 6.592 57.9846 11.08C57.9846 15.256 57.1326 19.456 55.4286 23.68C52.7406 30.16 49.0806 33.4 44.4486 33.4C42.0726 33.4 40.3326 32.452 39.2286 30.556C38.9406 30.076 38.7366 29.716 38.6166 29.476C36.0726 32.092 33.2646 33.4 30.1926 33.4C28.2006 33.4 26.7126 32.728 25.7286 31.384C24.7686 30.064 24.2886 28.456 24.2886 26.56C24.2886 24.664 24.5286 22.78 25.0086 20.908C25.5126 19.012 26.0886 17.392 26.7366 16.048C27.3846 14.704 28.1646 13.384 29.0766 12.088C30.3246 10.24 31.6086 8.656 32.9286 7.336C32.1366 7.336 31.1046 7.252 29.8326 7.084C27.1686 6.94 25.7406 6.868 25.5486 6.868C22.1886 6.868 19.5486 7.72 17.6286 9.424C15.7086 11.104 14.7486 13.432 14.7486 16.408C14.7486 17.8 15.0726 19.108 15.7206 20.332C16.0566 20.98 16.7886 21.724 17.9166 22.564C18.1566 22.756 18.5406 22.96 19.0686 23.176C19.5966 23.392 19.8726 23.5 19.8966 23.5L20.5086 23.68L20.4006 24.436C19.9446 24.436 19.2846 24.196 18.4206 23.716C17.5566 23.236 16.8126 22.732 16.1886 22.204C15.5886 21.652 15.0606 20.872 14.6046 19.864C14.1726 18.832 13.9566 17.68 13.9566 16.408C13.9566 13.24 15.0006 10.732 17.0886 8.884C19.1766 7.012 21.9966 6.076 25.5486 6.076C26.9886 6.076 28.3086 6.16 29.5086 6.328C30.7086 6.496 31.7886 6.58 32.7486 6.58ZM41.7486 23.968V24.508C41.9886 24.172 42.3006 23.692 42.6846 23.068C44.2446 20.644 45.5286 18.04 46.5366 15.256C47.5446 12.472 48.0486 10.18 48.0486 8.38C48.0486 7.132 47.5926 6.508 46.6806 6.508C46.3206 6.508 45.9246 6.604 45.4926 6.796C44.7006 7.54 43.9326 9.016 43.1886 11.224C42.2286 14.056 41.7486 18.304 41.7486 23.968ZM73.7178 27.604C74.2938 27.604 74.8938 27.268 75.5178 26.596L76.0578 27.028C75.8898 27.364 75.5178 27.664 74.9418 27.928C74.3658 28.192 73.7298 28.324 73.0338 28.324C70.8498 28.324 69.7578 27.34 69.7578 25.372C69.7578 24.532 69.9738 23.032 70.4058 20.872C70.8378 18.712 71.0538 17.296 71.0538 16.624C71.0538 15.592 70.5618 15.076 69.5778 15.076C68.7618 15.076 67.9698 15.628 67.2018 16.732C66.4578 17.836 65.8458 19.336 65.3658 21.232L64.1778 28H59.8578L63.8538 5.392C63.1338 5.464 62.5338 5.8 62.0538 6.4L61.5138 5.968C62.2338 5.104 63.1338 4.672 64.2138 4.672C65.3178 4.672 66.1698 4.948 66.7698 5.5C67.3698 6.052 67.6698 6.832 67.6698 7.84C67.6698 8.032 67.6458 8.344 67.5977 8.776L66.0858 17.308C67.0698 15.1 68.5938 13.996 70.6578 13.996C72.0738 13.996 73.1778 14.404 73.9698 15.22C74.7618 16.012 75.1578 17.116 75.1578 18.532C75.1578 19.276 74.9298 20.716 74.4738 22.852C74.0178 24.964 73.7658 26.548 73.7178 27.604ZM85.5367 13.996C88.5847 13.996 90.1087 15.208 90.1087 17.632C90.1087 19.144 89.3887 20.296 87.9487 21.088C86.5327 21.856 84.5047 22.252 81.8647 22.276C81.8167 23.14 81.7927 23.824 81.7927 24.328C81.7927 25.408 82.0327 26.212 82.5127 26.74C83.0167 27.244 83.6407 27.496 84.3847 27.496C85.1287 27.496 85.8007 27.352 86.4007 27.064C87.0247 26.776 87.5167 26.44 87.8767 26.056C88.2367 25.648 88.5487 25.228 88.8127 24.796C89.2927 24.004 89.5327 23.5 89.5327 23.284L90.1807 23.572C90.1087 23.956 89.8927 24.472 89.5327 25.12C89.1727 25.744 88.7767 26.26 88.3447 26.668C87.9127 27.076 87.2767 27.46 86.4367 27.82C85.5967 28.156 84.6607 28.324 83.6287 28.324C81.6847 28.324 80.2087 27.868 79.2007 26.956C78.2167 26.02 77.7247 24.748 77.7247 23.14C77.7247 20.284 78.4327 18.052 79.8487 16.444C81.2647 14.812 83.1607 13.996 85.5367 13.996ZM89.2087 17.632C89.2087 16.84 88.9687 16.192 88.4887 15.688C88.0327 15.16 87.3367 14.896 86.4007 14.896C85.4887 14.896 84.5887 15.448 83.7007 16.552C82.8367 17.656 82.2607 19.288 81.9727 21.448C86.7967 21.424 89.2087 20.152 89.2087 17.632ZM106.001 27.604C106.577 27.604 107.177 27.268 107.801 26.596L108.341 27.028C108.173 27.364 107.801 27.664 107.225 27.928C106.649 28.192 106.013 28.324 105.317 28.324C103.133 28.324 102.041 27.34 102.041 25.372C102.041 24.532 102.257 23.032 102.689 20.872C103.121 18.712 103.337 17.296 103.337 16.624C103.337 15.592 102.845 15.076 101.861 15.076C101.069 15.076 100.301 15.592 99.5573 16.624C98.8373 17.656 98.2373 19.072 97.7573 20.872L96.5333 27.604C97.2773 27.532 97.8893 27.196 98.3693 26.596L98.9093 27.028C98.1893 27.892 97.2893 28.324 96.2093 28.324C95.1293 28.324 94.2773 28.048 93.6533 27.496C93.0533 26.944 92.7533 26.224 92.7533 25.336C92.7533 25 92.9453 23.68 93.3293 21.376L94.5173 14.716C93.7973 14.788 93.1973 15.124 92.7173 15.724L92.1773 15.292C92.8973 14.428 93.7973 13.996 94.8773 13.996C95.9813 13.996 96.8333 14.272 97.4333 14.824C98.0333 15.376 98.3333 16.156 98.3333 17.164V17.38C99.3173 15.124 100.853 13.996 102.941 13.996C104.357 13.996 105.461 14.404 106.253 15.22C107.045 16.012 107.441 17.116 107.441 18.532C107.441 19.276 107.213 20.716 106.757 22.852C106.301 24.964 106.049 26.548 106.001 27.604ZM136.022 18.46C135.518 17.956 135.266 17.344 135.266 16.624C135.266 15.904 135.518 15.292 136.022 14.788C136.526 14.26 137.09 13.996 137.714 13.996C138.362 13.996 138.902 14.164 139.334 14.5C139.79 14.812 140.114 15.22 140.306 15.724C140.33 15.748 140.342 15.772 140.342 15.796V15.832C140.63 16.456 140.774 17.32 140.774 18.424C140.774 19.504 140.702 20.428 140.558 21.196C140.414 21.964 140.15 22.78 139.766 23.644C139.382 24.508 138.914 25.288 138.362 25.984C137.81 26.656 137.066 27.22 136.13 27.676C135.218 28.108 134.198 28.324 133.07 28.324C131.15 28.324 129.71 27.628 128.75 26.236C127.598 27.628 126.026 28.324 124.034 28.324C122.498 28.324 121.238 27.844 120.254 26.884C119.294 25.924 118.814 24.82 118.814 23.572C118.814 22.324 119.03 20.788 119.462 18.964C119.918 17.116 120.17 15.7 120.218 14.716C119.834 14.74 119.462 14.884 119.102 15.148C118.742 15.388 118.478 15.628 118.31 15.868L118.058 16.228L117.518 15.796C117.59 15.652 117.698 15.484 117.842 15.292C117.986 15.1 118.346 14.836 118.922 14.5C119.522 14.164 120.266 13.996 121.154 13.996C122.042 13.996 122.75 14.284 123.278 14.86C123.83 15.436 124.106 16.168 124.106 17.056C124.106 17.944 123.866 19.324 123.386 21.196C122.906 23.044 122.666 24.352 122.666 25.12C122.666 25.864 122.834 26.452 123.17 26.884C123.53 27.316 124.034 27.532 124.682 27.532C126.074 27.532 127.262 26.812 128.246 25.372C127.982 24.7 127.85 23.92 127.85 23.032C127.85 22.144 128.066 20.788 128.498 18.964C128.954 17.116 129.206 15.7 129.254 14.716C128.87 14.74 128.498 14.884 128.138 15.148C127.778 15.388 127.514 15.628 127.346 15.868L127.094 16.228L126.554 15.796C126.626 15.652 126.734 15.484 126.878 15.292C127.022 15.1 127.382 14.836 127.958 14.5C128.558 14.164 129.302 13.996 130.19 13.996C131.078 13.996 131.786 14.284 132.314 14.86C132.866 15.436 133.142 16.168 133.142 17.056C133.142 17.944 132.902 19.324 132.422 21.196C131.942 23.044 131.702 24.352 131.702 25.12C131.702 25.864 131.87 26.452 132.206 26.884C132.566 27.316 133.07 27.532 133.718 27.532C135.326 27.532 136.766 26.668 138.038 24.94C139.31 23.188 139.946 21.22 139.946 19.036C139.946 18.868 139.922 18.616 139.874 18.28C139.37 18.904 138.722 19.216 137.93 19.216C137.162 19.216 136.526 18.964 136.022 18.46ZM150.295 13.996C153.343 13.996 154.867 15.208 154.867 17.632C154.867 19.144 154.147 20.296 152.707 21.088C151.291 21.856 149.263 22.252 146.623 22.276C146.575 23.14 146.551 23.824 146.551 24.328C146.551 25.408 146.791 26.212 147.271 26.74C147.775 27.244 148.399 27.496 149.143 27.496C149.887 27.496 150.559 27.352 151.159 27.064C151.783 26.776 152.275 26.44 152.635 26.056C152.995 25.648 153.307 25.228 153.571 24.796C154.051 24.004 154.291 23.5 154.291 23.284L154.939 23.572C154.867 23.956 154.651 24.472 154.291 25.12C153.931 25.744 153.535 26.26 153.103 26.668C152.671 27.076 152.035 27.46 151.195 27.82C150.355 28.156 149.419 28.324 148.387 28.324C146.443 28.324 144.967 27.868 143.959 26.956C142.975 26.02 142.483 24.748 142.483 23.14C142.483 20.284 143.191 18.052 144.607 16.444C146.023 14.812 147.919 13.996 150.295 13.996ZM153.967 17.632C153.967 16.84 153.727 16.192 153.247 15.688C152.791 15.16 152.095 14.896 151.159 14.896C150.247 14.896 149.347 15.448 148.459 16.552C147.595 17.656 147.019 19.288 146.731 21.448C151.555 21.424 153.967 20.152 153.967 17.632ZM171.079 26.704C170.767 27.112 170.335 27.484 169.783 27.82C169.255 28.156 168.559 28.324 167.695 28.324C166.831 28.324 166.099 28.048 165.499 27.496C164.899 26.944 164.599 26.164 164.599 25.156C164.599 24.964 164.623 24.652 164.671 24.22L167.011 11.26C167.443 8.884 168.031 7.192 168.775 6.184C169.543 5.176 170.551 4.672 171.799 4.672C172.663 4.672 173.371 4.996 173.923 5.644C174.499 6.292 174.787 7.276 174.787 8.596C174.787 9.916 174.271 11.8 173.239 14.248C172.231 16.696 171.727 18.484 171.727 19.612H171.079C171.079 18.34 171.583 16.528 172.591 14.176C173.599 11.8 174.103 9.904 174.103 8.488C174.103 7.624 173.899 6.88 173.491 6.256C173.107 5.632 172.627 5.32 172.051 5.32C172.027 5.944 171.607 8.752 170.791 13.744C169.999 18.712 169.207 23.332 168.415 27.604C169.087 27.604 169.711 27.256 170.287 26.56C170.863 25.864 171.271 25.168 171.511 24.472L171.907 23.392L172.555 23.68C172.483 24.016 172.291 24.508 171.979 25.156C171.691 25.78 171.391 26.296 171.079 26.704ZM182.287 13.996C185.335 13.996 186.859 15.208 186.859 17.632C186.859 19.144 186.139 20.296 184.699 21.088C183.283 21.856 181.255 22.252 178.615 22.276C178.567 23.14 178.543 23.824 178.543 24.328C178.543 25.408 178.783 26.212 179.263 26.74C179.767 27.244 180.391 27.496 181.135 27.496C181.879 27.496 182.551 27.352 183.151 27.064C183.775 26.776 184.267 26.44 184.627 26.056C184.987 25.648 185.299 25.228 185.563 24.796C186.043 24.004 186.283 23.5 186.283 23.284L186.931 23.572C186.859 23.956 186.643 24.472 186.283 25.12C185.923 25.744 185.527 26.26 185.095 26.668C184.663 27.076 184.027 27.46 183.187 27.82C182.347 28.156 181.411 28.324 180.379 28.324C178.435 28.324 176.959 27.868 175.951 26.956C174.967 26.02 174.475 24.748 174.475 23.14C174.475 20.284 175.183 18.052 176.599 16.444C178.015 14.812 179.911 13.996 182.287 13.996ZM185.959 17.632C185.959 16.84 185.719 16.192 185.239 15.688C184.783 15.16 184.087 14.896 183.151 14.896C182.239 14.896 181.339 15.448 180.451 16.552C179.587 17.656 179.011 19.288 178.723 21.448C183.547 21.424 185.959 20.152 185.959 17.632ZM201.527 28.324C199.415 28.324 198.263 27.4 198.071 25.552C197.015 27.4 195.683 28.324 194.075 28.324C192.467 28.324 191.183 27.844 190.223 26.884C189.287 25.9 188.819 24.532 188.819 22.78C188.819 20.044 189.491 17.896 190.835 16.336C192.179 14.776 193.919 13.996 196.055 13.996C197.807 13.996 198.971 14.824 199.547 16.48C199.667 15.76 199.799 15.04 199.943 14.32C201.719 14.32 203.039 14.248 203.903 14.104L204.371 13.996L201.887 27.604C202.607 27.532 203.207 27.196 203.687 26.596L204.227 27.028C203.507 27.892 202.607 28.324 201.527 28.324ZM192.887 24.616C192.887 25.696 193.019 26.452 193.283 26.884C193.571 27.292 194.003 27.496 194.579 27.496C195.155 27.496 195.743 27.184 196.343 26.56C197.135 25.744 197.771 24.712 198.251 23.464C198.323 23.152 198.455 22.408 198.647 21.232C198.863 20.032 199.043 19.048 199.187 18.28C199.115 17.368 198.863 16.576 198.431 15.904C197.999 15.232 197.459 14.896 196.811 14.896C195.635 14.896 194.687 15.952 193.967 18.064C193.247 20.152 192.887 22.336 192.887 24.616ZM206.473 15.292C207.193 14.428 208.093 13.996 209.173 13.996C210.277 13.996 211.129 14.272 211.729 14.824C212.329 15.376 212.629 16.156 212.629 17.164V17.38C213.709 15.124 215.113 13.996 216.841 13.996C218.689 13.996 219.613 14.956 219.613 16.876C219.613 17.668 219.349 18.508 218.821 19.396C218.293 20.284 217.765 21.136 217.237 21.952C216.709 22.744 216.445 23.452 216.445 24.076H215.581C215.581 23.188 216.097 21.988 217.129 20.476C218.161 18.964 218.677 17.8 218.677 16.984C218.677 16.144 218.509 15.58 218.173 15.292C217.861 14.98 217.381 14.824 216.733 14.824C216.109 14.824 215.485 15.1 214.861 15.652C214.261 16.204 213.757 16.9 213.349 17.74C212.701 18.988 212.269 20.008 212.053 20.8V20.836L210.757 28H206.437L208.813 14.716C208.093 14.788 207.493 15.124 207.013 15.724L206.473 15.292ZM234.286 27.604C234.862 27.604 235.462 27.268 236.086 26.596L236.626 27.028C236.458 27.364 236.086 27.664 235.51 27.928C234.934 28.192 234.298 28.324 233.602 28.324C231.418 28.324 230.326 27.34 230.326 25.372C230.326 24.532 230.542 23.032 230.974 20.872C231.406 18.712 231.622 17.296 231.622 16.624C231.622 15.592 231.13 15.076 230.146 15.076C229.354 15.076 228.586 15.592 227.842 16.624C227.122 17.656 226.522 19.072 226.042 20.872L224.818 27.604C225.562 27.532 226.174 27.196 226.654 26.596L227.194 27.028C226.474 27.892 225.574 28.324 224.494 28.324C223.414 28.324 222.562 28.048 221.938 27.496C221.338 26.944 221.038 26.224 221.038 25.336C221.038 25 221.23 23.68 221.614 21.376L222.802 14.716C222.082 14.788 221.482 15.124 221.002 15.724L220.462 15.292C221.182 14.428 222.082 13.996 223.162 13.996C224.266 13.996 225.118 14.272 225.718 14.824C226.318 15.376 226.618 16.156 226.618 17.164V17.38C227.602 15.124 229.138 13.996 231.226 13.996C232.642 13.996 233.746 14.404 234.538 15.22C235.33 16.012 235.726 17.116 235.726 18.532C235.726 19.276 235.498 20.716 235.042 22.852C234.586 24.964 234.334 26.548 234.286 27.604ZM248.215 14.32L249.187 8.992C250.963 8.992 252.283 8.92 253.147 8.776L253.615 8.668C253.279 10.348 252.907 12.232 252.499 14.32H256.963L256.891 14.968H252.391C251.191 21.16 250.591 24.892 250.591 26.164C250.591 26.932 250.999 27.316 251.815 27.316C252.631 27.316 253.375 26.8 254.047 25.768C254.719 24.736 255.199 23.62 255.487 22.42L256.135 22.636C255.247 26.428 253.411 28.324 250.627 28.324C249.475 28.324 248.515 28.012 247.747 27.388C246.979 26.74 246.595 25.852 246.595 24.724C246.595 23.572 247.087 20.32 248.071 14.968H246.307L246.379 14.32H248.215ZM263.237 28.324C261.389 28.324 259.985 27.868 259.025 26.956C258.065 26.02 257.585 24.856 257.585 23.464C257.585 22.048 257.705 20.848 257.945 19.864C258.209 18.856 258.629 17.896 259.205 16.984C259.781 16.048 260.645 15.316 261.797 14.788C262.973 14.26 264.425 13.996 266.153 13.996C267.905 13.996 269.261 14.464 270.221 15.4C271.205 16.312 271.697 17.572 271.697 19.18C271.697 21.916 270.965 24.124 269.501 25.804C268.061 27.484 265.973 28.324 263.237 28.324ZM261.653 24.616C261.653 26.536 262.205 27.496 263.309 27.496C264.437 27.496 265.433 26.536 266.297 24.616C267.185 22.672 267.629 20.368 267.629 17.704C267.629 15.688 267.077 14.68 265.973 14.68C264.893 14.68 263.897 15.604 262.985 17.452C262.097 19.276 261.653 21.664 261.653 24.616ZM285.32 31.924C286.184 31.924 286.928 31.588 287.552 30.916L288.056 31.348C287.48 32.164 286.568 32.572 285.32 32.572C284.792 32.572 284.252 32.512 283.7 32.392C282.068 33.88 279.98 34.624 277.436 34.624C275.924 34.624 274.748 34.36 273.908 33.832C273.092 33.328 272.684 32.656 272.684 31.816C272.684 31 272.936 30.34 273.44 29.836C273.968 29.356 274.892 29.116 276.212 29.116C277.532 29.116 279.272 29.656 281.432 30.736L282.548 24.76C281.468 26.752 280.076 27.748 278.372 27.748C275.108 27.748 273.476 26.14 273.476 22.924C273.476 20.236 274.148 18.076 275.492 16.444C276.86 14.812 278.6 13.996 280.712 13.996C281.936 13.996 282.884 14.368 283.556 15.112C283.748 15.328 283.94 15.652 284.132 16.084L284.456 14.32C286.232 14.32 287.528 14.248 288.344 14.104L288.812 13.996L286.436 27.28C286.076 29.152 285.356 30.664 284.276 31.816C284.588 31.888 284.936 31.924 285.32 31.924ZM277.544 24.04C277.544 25.144 277.652 25.888 277.868 26.272C278.084 26.632 278.492 26.812 279.092 26.812C279.692 26.812 280.304 26.488 280.928 25.84C281.552 25.192 281.996 24.592 282.26 24.04C282.548 23.464 282.788 22.912 282.98 22.384L283.736 18.244V17.992C283.736 15.784 282.728 14.68 280.712 14.68C279.944 14.68 279.224 15.724 278.552 17.812C277.88 19.9 277.544 21.976 277.544 24.04ZM277.292 33.904C279.212 33.904 280.508 33.076 281.18 31.42L280.676 31.168C280.388 31.024 280.208 30.928 280.136 30.88C280.088 30.856 279.932 30.784 279.668 30.664C279.404 30.544 279.212 30.46 279.092 30.412C278.972 30.388 278.78 30.328 278.516 30.232C278.276 30.136 278.072 30.064 277.904 30.016C277.736 29.992 277.544 29.956 277.328 29.908C276.968 29.836 276.44 29.8 275.744 29.8C275.048 29.8 274.484 29.968 274.052 30.304C273.644 30.64 273.44 31.132 273.44 31.78C273.44 32.428 273.788 32.944 274.484 33.328C275.18 33.712 276.116 33.904 277.292 33.904ZM297.986 13.996C301.034 13.996 302.558 15.208 302.558 17.632C302.558 19.144 301.838 20.296 300.398 21.088C298.982 21.856 296.954 22.252 294.314 22.276C294.266 23.14 294.242 23.824 294.242 24.328C294.242 25.408 294.482 26.212 294.962 26.74C295.466 27.244 296.09 27.496 296.834 27.496C297.578 27.496 298.25 27.352 298.85 27.064C299.474 26.776 299.966 26.44 300.326 26.056C300.686 25.648 300.998 25.228 301.262 24.796C301.742 24.004 301.982 23.5 301.982 23.284L302.63 23.572C302.558 23.956 302.342 24.472 301.982 25.12C301.622 25.744 301.226 26.26 300.794 26.668C300.362 27.076 299.726 27.46 298.886 27.82C298.046 28.156 297.11 28.324 296.078 28.324C294.134 28.324 292.658 27.868 291.65 26.956C290.666 26.02 290.174 24.748 290.174 23.14C290.174 20.284 290.882 18.052 292.298 16.444C293.714 14.812 295.61 13.996 297.986 13.996ZM301.658 17.632C301.658 16.84 301.418 16.192 300.938 15.688C300.482 15.16 299.786 14.896 298.85 14.896C297.938 14.896 297.038 15.448 296.15 16.552C295.286 17.656 294.71 19.288 294.422 21.448C299.246 21.424 301.658 20.152 301.658 17.632ZM306.751 14.32L307.723 8.992C309.499 8.992 310.819 8.92 311.683 8.776L312.151 8.668C311.815 10.348 311.443 12.232 311.035 14.32H315.499L315.427 14.968H310.927C309.727 21.16 309.127 24.892 309.127 26.164C309.127 26.932 309.535 27.316 310.351 27.316C311.167 27.316 311.911 26.8 312.583 25.768C313.255 24.736 313.735 23.62 314.023 22.42L314.671 22.636C313.783 26.428 311.947 28.324 309.163 28.324C308.011 28.324 307.051 28.012 306.283 27.388C305.515 26.74 305.131 25.852 305.131 24.724C305.131 23.572 305.623 20.32 306.607 14.968H304.843L304.915 14.32H306.751ZM329.62 27.604C330.196 27.604 330.796 27.268 331.42 26.596L331.96 27.028C331.792 27.364 331.42 27.664 330.844 27.928C330.268 28.192 329.632 28.324 328.936 28.324C326.752 28.324 325.66 27.34 325.66 25.372C325.66 24.532 325.876 23.032 326.308 20.872C326.74 18.712 326.956 17.296 326.956 16.624C326.956 15.592 326.464 15.076 325.48 15.076C324.664 15.076 323.872 15.628 323.104 16.732C322.36 17.836 321.748 19.336 321.268 21.232L320.08 28H315.76L319.756 5.392C319.036 5.464 318.436 5.8 317.956 6.4L317.416 5.968C318.136 5.104 319.036 4.672 320.116 4.672C321.22 4.672 322.072 4.948 322.672 5.5C323.272 6.052 323.572 6.832 323.572 7.84C323.572 8.032 323.548 8.344 323.5 8.776L321.988 17.308C322.972 15.1 324.496 13.996 326.56 13.996C327.976 13.996 329.08 14.404 329.872 15.22C330.664 16.012 331.06 17.116 331.06 18.532C331.06 19.276 330.832 20.716 330.376 22.852C329.92 24.964 329.668 26.548 329.62 27.604ZM341.439 13.996C344.487 13.996 346.011 15.208 346.011 17.632C346.011 19.144 345.291 20.296 343.851 21.088C342.435 21.856 340.407 22.252 337.767 22.276C337.719 23.14 337.695 23.824 337.695 24.328C337.695 25.408 337.935 26.212 338.415 26.74C338.919 27.244 339.543 27.496 340.287 27.496C341.031 27.496 341.703 27.352 342.303 27.064C342.927 26.776 343.419 26.44 343.779 26.056C344.139 25.648 344.451 25.228 344.715 24.796C345.195 24.004 345.435 23.5 345.435 23.284L346.083 23.572C346.011 23.956 345.795 24.472 345.435 25.12C345.075 25.744 344.679 26.26 344.247 26.668C343.815 27.076 343.179 27.46 342.339 27.82C341.499 28.156 340.563 28.324 339.531 28.324C337.587 28.324 336.111 27.868 335.103 26.956C334.119 26.02 333.627 24.748 333.627 23.14C333.627 20.284 334.335 18.052 335.751 16.444C337.167 14.812 339.063 13.996 341.439 13.996ZM345.111 17.632C345.111 16.84 344.871 16.192 344.391 15.688C343.935 15.16 343.239 14.896 342.303 14.896C341.391 14.896 340.491 15.448 339.603 16.552C338.739 17.656 338.163 19.288 337.875 21.448C342.699 21.424 345.111 20.152 345.111 17.632ZM348.188 15.292C348.908 14.428 349.808 13.996 350.888 13.996C351.992 13.996 352.844 14.272 353.444 14.824C354.044 15.376 354.344 16.156 354.344 17.164V17.38C355.424 15.124 356.828 13.996 358.556 13.996C360.404 13.996 361.328 14.956 361.328 16.876C361.328 17.668 361.064 18.508 360.536 19.396C360.008 20.284 359.48 21.136 358.952 21.952C358.424 22.744 358.16 23.452 358.16 24.076H357.296C357.296 23.188 357.812 21.988 358.844 20.476C359.876 18.964 360.392 17.8 360.392 16.984C360.392 16.144 360.224 15.58 359.888 15.292C359.576 14.98 359.096 14.824 358.448 14.824C357.824 14.824 357.2 15.1 356.576 15.652C355.976 16.204 355.472 16.9 355.064 17.74C354.416 18.988 353.984 20.008 353.768 20.8V20.836L352.472 28H348.152L350.528 14.716C349.808 14.788 349.208 15.124 348.728 15.724L348.188 15.292ZM362.897 27.532C362.393 27.028 362.141 26.416 362.141 25.696C362.141 24.976 362.393 24.364 362.897 23.86C363.401 23.332 364.013 23.068 364.733 23.068C365.453 23.068 366.065 23.332 366.569 23.86C367.097 24.364 367.361 24.976 367.361 25.696C367.361 26.872 366.833 28.108 365.777 29.404C364.745 30.7 363.269 31.624 361.349 32.176L361.025 31.42C362.105 31.06 363.017 30.604 363.761 30.052C364.529 29.524 365.021 29.08 365.237 28.72L365.561 28.144C365.345 28.24 365.069 28.288 364.733 28.288C364.013 28.288 363.401 28.036 362.897 27.532ZM396.671 18.46C396.167 17.956 395.915 17.344 395.915 16.624C395.915 15.904 396.167 15.292 396.671 14.788C397.175 14.26 397.739 13.996 398.363 13.996C399.011 13.996 399.551 14.164 399.983 14.5C400.439 14.812 400.763 15.22 400.955 15.724C400.979 15.748 400.991 15.772 400.991 15.796V15.832C401.279 16.456 401.423 17.32 401.423 18.424C401.423 19.504 401.351 20.428 401.207 21.196C401.063 21.964 400.799 22.78 400.415 23.644C400.031 24.508 399.563 25.288 399.011 25.984C398.459 26.656 397.715 27.22 396.779 27.676C395.867 28.108 394.847 28.324 393.719 28.324C391.799 28.324 390.359 27.628 389.399 26.236C388.247 27.628 386.675 28.324 384.683 28.324C383.147 28.324 381.887 27.844 380.903 26.884C379.943 25.924 379.463 24.82 379.463 23.572C379.463 22.324 379.679 20.788 380.111 18.964C380.567 17.116 380.819 15.7 380.867 14.716C380.483 14.74 380.111 14.884 379.751 15.148C379.391 15.388 379.127 15.628 378.959 15.868L378.707 16.228L378.167 15.796C378.239 15.652 378.347 15.484 378.491 15.292C378.635 15.1 378.995 14.836 379.571 14.5C380.171 14.164 380.915 13.996 381.803 13.996C382.691 13.996 383.399 14.284 383.927 14.86C384.479 15.436 384.755 16.168 384.755 17.056C384.755 17.944 384.515 19.324 384.035 21.196C383.555 23.044 383.315 24.352 383.315 25.12C383.315 25.864 383.483 26.452 383.819 26.884C384.179 27.316 384.683 27.532 385.331 27.532C386.723 27.532 387.911 26.812 388.895 25.372C388.631 24.7 388.499 23.92 388.499 23.032C388.499 22.144 388.715 20.788 389.147 18.964C389.603 17.116 389.855 15.7 389.903 14.716C389.519 14.74 389.147 14.884 388.787 15.148C388.427 15.388 388.163 15.628 387.995 15.868L387.743 16.228L387.203 15.796C387.275 15.652 387.383 15.484 387.527 15.292C387.671 15.1 388.031 14.836 388.607 14.5C389.207 14.164 389.951 13.996 390.839 13.996C391.727 13.996 392.435 14.284 392.963 14.86C393.515 15.436 393.791 16.168 393.791 17.056C393.791 17.944 393.551 19.324 393.071 21.196C392.591 23.044 392.351 24.352 392.351 25.12C392.351 25.864 392.519 26.452 392.855 26.884C393.215 27.316 393.719 27.532 394.367 27.532C395.975 27.532 397.415 26.668 398.687 24.94C399.959 23.188 400.595 21.22 400.595 19.036C400.595 18.868 400.571 18.616 400.523 18.28C400.019 18.904 399.371 19.216 398.579 19.216C397.811 19.216 397.175 18.964 396.671 18.46ZM410.943 13.996C413.991 13.996 415.515 15.208 415.515 17.632C415.515 19.144 414.795 20.296 413.355 21.088C411.939 21.856 409.911 22.252 407.271 22.276C407.223 23.14 407.199 23.824 407.199 24.328C407.199 25.408 407.439 26.212 407.919 26.74C408.423 27.244 409.047 27.496 409.791 27.496C410.535 27.496 411.207 27.352 411.807 27.064C412.431 26.776 412.923 26.44 413.283 26.056C413.643 25.648 413.955 25.228 414.219 24.796C414.699 24.004 414.939 23.5 414.939 23.284L415.587 23.572C415.515 23.956 415.299 24.472 414.939 25.12C414.579 25.744 414.183 26.26 413.751 26.668C413.319 27.076 412.683 27.46 411.843 27.82C411.003 28.156 410.067 28.324 409.035 28.324C407.091 28.324 405.615 27.868 404.607 26.956C403.623 26.02 403.131 24.748 403.131 23.14C403.131 20.284 403.839 18.052 405.255 16.444C406.671 14.812 408.567 13.996 410.943 13.996ZM414.615 17.632C414.615 16.84 414.375 16.192 413.895 15.688C413.439 15.16 412.743 14.896 411.807 14.896C410.895 14.896 409.995 15.448 409.107 16.552C408.243 17.656 407.667 19.288 407.379 21.448C412.203 21.424 414.615 20.152 414.615 17.632ZM436.984 31.924C437.848 31.924 438.592 31.588 439.216 30.916L439.72 31.348C439.144 32.164 438.232 32.572 436.984 32.572C436.456 32.572 435.916 32.512 435.364 32.392C433.732 33.88 431.644 34.624 429.1 34.624C427.588 34.624 426.412 34.36 425.572 33.832C424.756 33.328 424.348 32.656 424.348 31.816C424.348 31 424.6 30.34 425.104 29.836C425.632 29.356 426.556 29.116 427.876 29.116C429.196 29.116 430.936 29.656 433.096 30.736L434.212 24.76C433.132 26.752 431.74 27.748 430.036 27.748C426.772 27.748 425.14 26.14 425.14 22.924C425.14 20.236 425.812 18.076 427.156 16.444C428.524 14.812 430.264 13.996 432.376 13.996C433.6 13.996 434.548 14.368 435.22 15.112C435.412 15.328 435.604 15.652 435.796 16.084L436.12 14.32C437.896 14.32 439.192 14.248 440.008 14.104L440.476 13.996L438.1 27.28C437.74 29.152 437.02 30.664 435.94 31.816C436.252 31.888 436.6 31.924 436.984 31.924ZM429.208 24.04C429.208 25.144 429.316 25.888 429.532 26.272C429.748 26.632 430.156 26.812 430.756 26.812C431.356 26.812 431.968 26.488 432.592 25.84C433.216 25.192 433.66 24.592 433.924 24.04C434.212 23.464 434.452 22.912 434.644 22.384L435.4 18.244V17.992C435.4 15.784 434.392 14.68 432.376 14.68C431.608 14.68 430.888 15.724 430.216 17.812C429.544 19.9 429.208 21.976 429.208 24.04ZM428.956 33.904C430.876 33.904 432.172 33.076 432.844 31.42L432.34 31.168C432.052 31.024 431.872 30.928 431.8 30.88C431.752 30.856 431.596 30.784 431.332 30.664C431.068 30.544 430.876 30.46 430.756 30.412C430.636 30.388 430.444 30.328 430.18 30.232C429.94 30.136 429.736 30.064 429.568 30.016C429.4 29.992 429.208 29.956 428.992 29.908C428.632 29.836 428.104 29.8 427.408 29.8C426.712 29.8 426.148 29.968 425.716 30.304C425.308 30.64 425.104 31.132 425.104 31.78C425.104 32.428 425.452 32.944 426.148 33.328C426.844 33.712 427.78 33.904 428.956 33.904ZM442.09 15.292C442.81 14.428 443.71 13.996 444.79 13.996C445.894 13.996 446.746 14.272 447.346 14.824C447.946 15.376 448.246 16.156 448.246 17.164V17.38C449.326 15.124 450.73 13.996 452.458 13.996C454.306 13.996 455.23 14.956 455.23 16.876C455.23 17.668 454.966 18.508 454.438 19.396C453.91 20.284 453.382 21.136 452.854 21.952C452.326 22.744 452.062 23.452 452.062 24.076H451.198C451.198 23.188 451.714 21.988 452.746 20.476C453.778 18.964 454.294 17.8 454.294 16.984C454.294 16.144 454.126 15.58 453.79 15.292C453.478 14.98 452.998 14.824 452.35 14.824C451.726 14.824 451.102 15.1 450.478 15.652C449.878 16.204 449.374 16.9 448.966 17.74C448.318 18.988 447.886 20.008 447.67 20.8V20.836L446.374 28H442.054L444.43 14.716C443.71 14.788 443.11 15.124 442.63 15.724L442.09 15.292ZM461.624 28.324C459.776 28.324 458.372 27.868 457.412 26.956C456.452 26.02 455.972 24.856 455.972 23.464C455.972 22.048 456.092 20.848 456.332 19.864C456.596 18.856 457.016 17.896 457.592 16.984C458.168 16.048 459.032 15.316 460.184 14.788C461.36 14.26 462.812 13.996 464.54 13.996C466.292 13.996 467.648 14.464 468.608 15.4C469.592 16.312 470.084 17.572 470.084 19.18C470.084 21.916 469.352 24.124 467.888 25.804C466.448 27.484 464.36 28.324 461.624 28.324ZM460.04 24.616C460.04 26.536 460.592 27.496 461.696 27.496C462.824 27.496 463.82 26.536 464.684 24.616C465.572 22.672 466.016 20.368 466.016 17.704C466.016 15.688 465.464 14.68 464.36 14.68C463.28 14.68 462.284 15.604 461.372 17.452C460.484 19.276 460.04 21.664 460.04 24.616ZM490.186 18.46C489.682 17.956 489.43 17.344 489.43 16.624C489.43 15.904 489.682 15.292 490.186 14.788C490.69 14.26 491.254 13.996 491.878 13.996C492.526 13.996 493.066 14.164 493.498 14.5C493.954 14.812 494.278 15.22 494.47 15.724C494.494 15.748 494.506 15.772 494.506 15.796V15.832C494.794 16.456 494.938 17.32 494.938 18.424C494.938 19.504 494.866 20.428 494.722 21.196C494.578 21.964 494.314 22.78 493.93 23.644C493.546 24.508 493.078 25.288 492.526 25.984C491.974 26.656 491.23 27.22 490.294 27.676C489.382 28.108 488.362 28.324 487.234 28.324C485.314 28.324 483.874 27.628 482.914 26.236C481.762 27.628 480.19 28.324 478.198 28.324C476.662 28.324 475.402 27.844 474.418 26.884C473.458 25.924 472.978 24.82 472.978 23.572C472.978 22.324 473.194 20.788 473.626 18.964C474.082 17.116 474.334 15.7 474.382 14.716C473.998 14.74 473.626 14.884 473.266 15.148C472.906 15.388 472.642 15.628 472.474 15.868L472.222 16.228L471.682 15.796C471.754 15.652 471.862 15.484 472.006 15.292C472.15 15.1 472.51 14.836 473.086 14.5C473.686 14.164 474.43 13.996 475.318 13.996C476.206 13.996 476.914 14.284 477.442 14.86C477.994 15.436 478.27 16.168 478.27 17.056C478.27 17.944 478.03 19.324 477.55 21.196C477.07 23.044 476.83 24.352 476.83 25.12C476.83 25.864 476.998 26.452 477.334 26.884C477.694 27.316 478.198 27.532 478.846 27.532C480.238 27.532 481.426 26.812 482.41 25.372C482.146 24.7 482.014 23.92 482.014 23.032C482.014 22.144 482.23 20.788 482.662 18.964C483.118 17.116 483.37 15.7 483.418 14.716C483.034 14.74 482.662 14.884 482.302 15.148C481.942 15.388 481.678 15.628 481.51 15.868L481.258 16.228L480.718 15.796C480.79 15.652 480.898 15.484 481.042 15.292C481.186 15.1 481.546 14.836 482.122 14.5C482.722 14.164 483.466 13.996 484.354 13.996C485.242 13.996 485.95 14.284 486.478 14.86C487.03 15.436 487.306 16.168 487.306 17.056C487.306 17.944 487.066 19.324 486.586 21.196C486.106 23.044 485.866 24.352 485.866 25.12C485.866 25.864 486.034 26.452 486.37 26.884C486.73 27.316 487.234 27.532 487.882 27.532C489.49 27.532 490.93 26.668 492.202 24.94C493.474 23.188 494.11 21.22 494.11 19.036C494.11 18.868 494.086 18.616 494.038 18.28C493.534 18.904 492.886 19.216 492.094 19.216C491.326 19.216 490.69 18.964 490.186 18.46ZM506.579 14.32L507.551 8.992C509.327 8.992 510.647 8.92 511.511 8.776L511.979 8.668C511.643 10.348 511.271 12.232 510.863 14.32H515.327L515.255 14.968H510.755C509.555 21.16 508.955 24.892 508.955 26.164C508.955 26.932 509.363 27.316 510.179 27.316C510.995 27.316 511.739 26.8 512.411 25.768C513.083 24.736 513.563 23.62 513.851 22.42L514.499 22.636C513.611 26.428 511.775 28.324 508.991 28.324C507.839 28.324 506.879 28.012 506.111 27.388C505.343 26.74 504.959 25.852 504.959 24.724C504.959 23.572 505.451 20.32 506.435 14.968H504.671L504.743 14.32H506.579ZM521.6 28.324C519.752 28.324 518.348 27.868 517.388 26.956C516.428 26.02 515.948 24.856 515.948 23.464C515.948 22.048 516.068 20.848 516.308 19.864C516.572 18.856 516.992 17.896 517.568 16.984C518.144 16.048 519.008 15.316 520.16 14.788C521.336 14.26 522.788 13.996 524.516 13.996C526.268 13.996 527.624 14.464 528.584 15.4C529.568 16.312 530.06 17.572 530.06 19.18C530.06 21.916 529.328 24.124 527.864 25.804C526.424 27.484 524.336 28.324 521.6 28.324ZM520.016 24.616C520.016 26.536 520.568 27.496 521.672 27.496C522.8 27.496 523.796 26.536 524.66 24.616C525.548 22.672 525.992 20.368 525.992 17.704C525.992 15.688 525.44 14.68 524.336 14.68C523.256 14.68 522.26 15.604 521.348 17.452C520.46 19.276 520.016 21.664 520.016 24.616ZM543.683 31.924C544.547 31.924 545.291 31.588 545.915 30.916L546.419 31.348C545.843 32.164 544.931 32.572 543.683 32.572C543.155 32.572 542.615 32.512 542.063 32.392C540.431 33.88 538.343 34.624 535.799 34.624C534.287 34.624 533.111 34.36 532.271 33.832C531.455 33.328 531.047 32.656 531.047 31.816C531.047 31 531.299 30.34 531.803 29.836C532.331 29.356 533.255 29.116 534.575 29.116C535.895 29.116 537.635 29.656 539.795 30.736L540.911 24.76C539.831 26.752 538.439 27.748 536.735 27.748C533.471 27.748 531.839 26.14 531.839 22.924C531.839 20.236 532.511 18.076 533.855 16.444C535.223 14.812 536.963 13.996 539.075 13.996C540.299 13.996 541.247 14.368 541.919 15.112C542.111 15.328 542.303 15.652 542.495 16.084L542.819 14.32C544.595 14.32 545.891 14.248 546.707 14.104L547.175 13.996L544.799 27.28C544.439 29.152 543.719 30.664 542.639 31.816C542.951 31.888 543.299 31.924 543.683 31.924ZM535.907 24.04C535.907 25.144 536.015 25.888 536.231 26.272C536.447 26.632 536.855 26.812 537.455 26.812C538.055 26.812 538.667 26.488 539.291 25.84C539.915 25.192 540.359 24.592 540.623 24.04C540.911 23.464 541.151 22.912 541.343 22.384L542.099 18.244V17.992C542.099 15.784 541.091 14.68 539.075 14.68C538.307 14.68 537.587 15.724 536.915 17.812C536.243 19.9 535.907 21.976 535.907 24.04ZM535.655 33.904C537.575 33.904 538.871 33.076 539.543 31.42L539.039 31.168C538.751 31.024 538.571 30.928 538.499 30.88C538.451 30.856 538.295 30.784 538.031 30.664C537.767 30.544 537.575 30.46 537.455 30.412C537.335 30.388 537.143 30.328 536.879 30.232C536.639 30.136 536.435 30.064 536.267 30.016C536.099 29.992 535.907 29.956 535.691 29.908C535.331 29.836 534.803 29.8 534.107 29.8C533.411 29.8 532.847 29.968 532.415 30.304C532.007 30.64 531.803 31.132 531.803 31.78C531.803 32.428 532.151 32.944 532.847 33.328C533.543 33.712 534.479 33.904 535.655 33.904ZM556.349 13.996C559.397 13.996 560.921 15.208 560.921 17.632C560.921 19.144 560.201 20.296 558.761 21.088C557.345 21.856 555.317 22.252 552.677 22.276C552.629 23.14 552.605 23.824 552.605 24.328C552.605 25.408 552.845 26.212 553.325 26.74C553.829 27.244 554.453 27.496 555.197 27.496C555.941 27.496 556.613 27.352 557.213 27.064C557.837 26.776 558.329 26.44 558.689 26.056C559.049 25.648 559.361 25.228 559.625 24.796C560.105 24.004 560.345 23.5 560.345 23.284L560.993 23.572C560.921 23.956 560.705 24.472 560.345 25.12C559.985 25.744 559.589 26.26 559.157 26.668C558.725 27.076 558.089 27.46 557.249 27.82C556.409 28.156 555.473 28.324 554.441 28.324C552.497 28.324 551.021 27.868 550.013 26.956C549.029 26.02 548.537 24.748 548.537 23.14C548.537 20.284 549.245 18.052 550.661 16.444C552.077 14.812 553.973 13.996 556.349 13.996ZM560.021 17.632C560.021 16.84 559.781 16.192 559.301 15.688C558.845 15.16 558.149 14.896 557.213 14.896C556.301 14.896 555.401 15.448 554.513 16.552C553.649 17.656 553.073 19.288 552.785 21.448C557.609 21.424 560.021 20.152 560.021 17.632ZM565.114 14.32L566.086 8.992C567.862 8.992 569.182 8.92 570.046 8.776L570.514 8.668C570.178 10.348 569.806 12.232 569.398 14.32H573.862L573.79 14.968H569.29C568.09 21.16 567.49 24.892 567.49 26.164C567.49 26.932 567.898 27.316 568.714 27.316C569.53 27.316 570.274 26.8 570.946 25.768C571.618 24.736 572.098 23.62 572.386 22.42L573.034 22.636C572.146 26.428 570.31 28.324 567.526 28.324C566.374 28.324 565.414 28.012 564.646 27.388C563.878 26.74 563.494 25.852 563.494 24.724C563.494 23.572 563.986 20.32 564.97 14.968H563.206L563.278 14.32H565.114ZM587.983 27.604C588.559 27.604 589.159 27.268 589.783 26.596L590.323 27.028C590.155 27.364 589.783 27.664 589.207 27.928C588.631 28.192 587.995 28.324 587.299 28.324C585.115 28.324 584.023 27.34 584.023 25.372C584.023 24.532 584.239 23.032 584.671 20.872C585.103 18.712 585.319 17.296 585.319 16.624C585.319 15.592 584.827 15.076 583.843 15.076C583.027 15.076 582.235 15.628 581.467 16.732C580.723 17.836 580.111 19.336 579.631 21.232L578.443 28H574.123L578.119 5.392C577.399 5.464 576.799 5.8 576.319 6.4L575.779 5.968C576.499 5.104 577.399 4.672 578.479 4.672C579.583 4.672 580.435 4.948 581.035 5.5C581.635 6.052 581.935 6.832 581.935 7.84C581.935 8.032 581.911 8.344 581.863 8.776L580.351 17.308C581.335 15.1 582.859 13.996 584.923 13.996C586.339 13.996 587.443 14.404 588.235 15.22C589.027 16.012 589.423 17.116 589.423 18.532C589.423 19.276 589.195 20.716 588.739 22.852C588.283 24.964 588.031 26.548 587.983 27.604ZM599.802 13.996C602.85 13.996 604.374 15.208 604.374 17.632C604.374 19.144 603.654 20.296 602.214 21.088C600.798 21.856 598.77 22.252 596.13 22.276C596.082 23.14 596.058 23.824 596.058 24.328C596.058 25.408 596.298 26.212 596.778 26.74C597.282 27.244 597.906 27.496 598.65 27.496C599.394 27.496 600.066 27.352 600.666 27.064C601.29 26.776 601.782 26.44 602.142 26.056C602.502 25.648 602.814 25.228 603.078 24.796C603.558 24.004 603.798 23.5 603.798 23.284L604.446 23.572C604.374 23.956 604.158 24.472 603.798 25.12C603.438 25.744 603.042 26.26 602.61 26.668C602.178 27.076 601.542 27.46 600.702 27.82C599.862 28.156 598.926 28.324 597.894 28.324C595.95 28.324 594.474 27.868 593.466 26.956C592.482 26.02 591.99 24.748 591.99 23.14C591.99 20.284 592.698 18.052 594.114 16.444C595.53 14.812 597.426 13.996 599.802 13.996ZM603.474 17.632C603.474 16.84 603.234 16.192 602.754 15.688C602.298 15.16 601.602 14.896 600.666 14.896C599.754 14.896 598.854 15.448 597.966 16.552C597.102 17.656 596.526 19.288 596.238 21.448C601.062 21.424 603.474 20.152 603.474 17.632ZM606.551 15.292C607.271 14.428 608.171 13.996 609.251 13.996C610.355 13.996 611.207 14.272 611.807 14.824C612.407 15.376 612.707 16.156 612.707 17.164V17.38C613.787 15.124 615.191 13.996 616.919 13.996C618.767 13.996 619.691 14.956 619.691 16.876C619.691 17.668 619.427 18.508 618.899 19.396C618.371 20.284 617.843 21.136 617.315 21.952C616.787 22.744 616.523 23.452 616.523 24.076H615.659C615.659 23.188 616.175 21.988 617.207 20.476C618.239 18.964 618.755 17.8 618.755 16.984C618.755 16.144 618.587 15.58 618.251 15.292C617.939 14.98 617.459 14.824 616.811 14.824C616.187 14.824 615.563 15.1 614.939 15.652C614.339 16.204 613.835 16.9 613.427 17.74C612.779 18.988 612.347 20.008 612.131 20.8V20.836L610.835 28H606.515L608.891 14.716C608.171 14.788 607.571 15.124 607.091 15.724L606.551 15.292ZM621.261 27.532C620.757 27.028 620.505 26.416 620.505 25.696C620.505 24.976 620.757 24.364 621.261 23.86C621.765 23.332 622.377 23.068 623.097 23.068C623.817 23.068 624.429 23.332 624.933 23.86C625.461 24.364 625.725 24.976 625.725 25.696C625.725 26.416 625.461 27.028 624.933 27.532C624.429 28.036 623.817 28.288 623.097 28.288C622.377 28.288 621.765 28.036 621.261 27.532ZM635.631 5.32C635.127 4.816 634.875 4.204 634.875 3.484C634.875 2.764 635.127 2.152 635.631 1.648C636.135 1.12 636.747 0.856 637.467 0.856C638.187 0.856 638.799 1.12 639.303 1.648C639.831 2.152 640.095 2.764 640.095 3.484C640.095 4.66 639.567 5.896 638.511 7.192C637.479 8.488 636.003 9.412 634.083 9.964L633.759 9.208C634.839 8.848 635.751 8.404 636.495 7.876C637.263 7.324 637.755 6.856 637.971 6.472L638.295 5.932C638.079 6.028 637.803 6.076 637.467 6.076C636.747 6.076 636.135 5.824 635.631 5.32ZM628.899 5.32C628.395 4.816 628.143 4.204 628.143 3.484C628.143 2.764 628.395 2.152 628.899 1.648C629.403 1.12 630.015 0.856 630.735 0.856C631.455 0.856 632.067 1.12 632.571 1.648C633.099 2.152 633.363 2.764 633.363 3.484C633.363 4.66 632.835 5.896 631.779 7.192C630.747 8.488 629.271 9.412 627.351 9.964L627.027 9.208C628.107 8.848 629.019 8.404 629.763 7.876C630.531 7.324 631.023 6.856 631.239 6.472L631.562 5.932C631.347 6.028 631.071 6.076 630.735 6.076C630.015 6.076 629.403 5.824 628.899 5.32ZM272.545 81.376H253.357L253.429 80.728H272.617L272.545 81.376ZM290.918 76.984C292.166 76.576 293.618 76.372 295.274 76.372C296.93 76.372 297.758 76.852 297.758 77.812C297.758 78.388 297.446 78.868 296.822 79.252C296.198 79.612 295.298 79.792 294.122 79.792C292.274 79.792 290.786 79.348 289.658 78.46C289.226 78.916 288.89 79.3 288.65 79.612C288.41 79.924 288.134 80.524 287.822 81.412C287.534 82.3 287.39 83.368 287.39 84.616C287.39 85.864 287.918 86.956 288.974 87.892C290.03 88.804 291.122 89.26 292.25 89.26C293.402 89.26 294.47 89.044 295.454 88.612C296.438 88.18 297.218 87.676 297.794 87.1C298.37 86.524 298.874 85.888 299.306 85.192C299.906 84.304 300.302 83.524 300.494 82.852L301.214 83.032C301.214 83.104 301.118 83.356 300.926 83.788C300.758 84.22 300.434 84.796 299.954 85.516C299.474 86.212 298.898 86.896 298.226 87.568C297.554 88.216 296.63 88.78 295.454 89.26C294.278 89.74 292.994 89.98 291.602 89.98C289.034 89.98 287.03 89.428 285.59 88.324C284.15 87.244 283.43 85.828 283.43 84.076C283.43 82.324 283.97 80.932 285.05 79.9C286.154 78.868 287.45 78.148 288.938 77.74C287.858 76.42 287.318 74.86 287.318 73.06C287.318 71.236 288.038 69.616 289.478 68.2C290.942 66.784 293.042 66.076 295.778 66.076C297.866 66.076 299.462 66.448 300.566 67.192C301.694 67.912 302.258 68.824 302.258 69.928C302.258 71.008 301.97 72.124 301.394 73.276C300.842 74.404 300.53 75.304 300.458 75.976H299.702C299.774 75.256 300.086 74.332 300.638 73.204C301.214 72.076 301.502 71.032 301.502 70.072C301.502 69.088 300.986 68.284 299.954 67.66C298.946 67.036 297.65 66.724 296.066 66.724C294.506 66.724 293.174 67.336 292.07 68.56C290.966 69.76 290.414 71.608 290.414 74.104C290.414 75.448 290.582 76.408 290.918 76.984ZM291.458 78.028C291.578 78.196 291.878 78.424 292.358 78.712C292.862 79 293.522 79.144 294.338 79.144C295.154 79.144 295.802 79.024 296.282 78.784C296.786 78.52 297.038 78.22 297.038 77.884C297.038 77.308 296.39 77.02 295.094 77.02C293.798 77.02 292.502 77.212 291.206 77.596C291.254 77.716 291.338 77.86 291.458 78.028ZM305.731 74.32L306.703 68.992C308.479 68.992 309.799 68.92 310.663 68.776L311.131 68.668C310.795 70.348 310.423 72.232 310.015 74.32H314.479L314.407 74.968H309.907C308.707 81.16 308.107 84.892 308.107 86.164C308.107 86.932 308.515 87.316 309.331 87.316C310.147 87.316 310.891 86.8 311.563 85.768C312.235 84.736 312.715 83.62 313.003 82.42L313.651 82.636C312.763 86.428 310.927 88.324 308.143 88.324C306.991 88.324 306.031 88.012 305.263 87.388C304.495 86.74 304.111 85.852 304.111 84.724C304.111 83.572 304.603 80.32 305.587 74.968H303.823L303.895 74.32H305.731ZM320.753 88.324C318.905 88.324 317.501 87.868 316.541 86.956C315.581 86.02 315.101 84.856 315.101 83.464C315.101 82.048 315.221 80.848 315.461 79.864C315.725 78.856 316.145 77.896 316.721 76.984C317.297 76.048 318.161 75.316 319.313 74.788C320.489 74.26 321.941 73.996 323.669 73.996C325.421 73.996 326.777 74.464 327.737 75.4C328.721 76.312 329.213 77.572 329.213 79.18C329.213 81.916 328.481 84.124 327.017 85.804C325.577 87.484 323.489 88.324 320.753 88.324ZM319.169 84.616C319.169 86.536 319.721 87.496 320.825 87.496C321.953 87.496 322.949 86.536 323.813 84.616C324.701 82.672 325.145 80.368 325.145 77.704C325.145 75.688 324.593 74.68 323.489 74.68C322.409 74.68 321.413 75.604 320.501 77.452C319.613 79.276 319.169 81.664 319.169 84.616ZM344.707 87.604C345.283 87.604 345.883 87.268 346.507 86.596L347.047 87.028C346.879 87.364 346.507 87.664 345.931 87.928C345.355 88.192 344.719 88.324 344.023 88.324C341.839 88.324 340.747 87.34 340.747 85.372C340.747 84.532 340.963 83.032 341.395 80.872C341.827 78.712 342.043 77.296 342.043 76.624C342.043 75.592 341.551 75.076 340.567 75.076C339.079 75.076 337.831 76.984 336.823 80.8L335.527 88H331.207L333.583 74.716C332.863 74.788 332.263 75.124 331.783 75.724L331.243 75.292C331.963 74.428 332.863 73.996 333.943 73.996C335.047 73.996 335.899 74.272 336.499 74.824C337.099 75.376 337.399 76.156 337.399 77.164V77.272C338.335 75.088 339.751 73.996 341.647 73.996C342.991 73.996 344.047 74.368 344.815 75.112C345.607 75.832 346.039 76.852 346.111 78.172C346.567 76.852 347.143 75.832 347.839 75.112C348.535 74.368 349.543 73.996 350.863 73.996C352.183 73.996 353.239 74.404 354.031 75.22C354.823 76.012 355.219 77.116 355.219 78.532C355.219 79.276 354.991 80.716 354.535 82.852C354.079 84.964 353.827 86.548 353.779 87.604C354.355 87.604 354.955 87.268 355.579 86.596L356.119 87.028C355.951 87.364 355.579 87.664 355.003 87.928C354.427 88.192 353.791 88.324 353.095 88.324C350.911 88.324 349.819 87.34 349.819 85.372C349.819 84.532 350.035 83.032 350.467 80.872C350.899 78.712 351.115 77.296 351.115 76.624C351.115 75.592 350.623 75.076 349.639 75.076C347.911 75.076 346.519 77.644 345.463 82.78C345.007 84.964 344.755 86.572 344.707 87.604ZM363.467 88.324C361.619 88.324 360.215 87.868 359.255 86.956C358.295 86.02 357.815 84.856 357.815 83.464C357.815 82.048 357.935 80.848 358.175 79.864C358.439 78.856 358.859 77.896 359.435 76.984C360.011 76.048 360.875 75.316 362.027 74.788C363.203 74.26 364.655 73.996 366.383 73.996C368.135 73.996 369.491 74.464 370.451 75.4C371.435 76.312 371.927 77.572 371.927 79.18C371.927 81.916 371.195 84.124 369.731 85.804C368.291 87.484 366.203 88.324 363.467 88.324ZM361.883 84.616C361.883 86.536 362.435 87.496 363.539 87.496C364.667 87.496 365.663 86.536 366.527 84.616C367.415 82.672 367.859 80.368 367.859 77.704C367.859 75.688 367.307 74.68 366.203 74.68C365.123 74.68 364.127 75.604 363.215 77.452C362.327 79.276 361.883 81.664 361.883 84.616ZM387.638 87.604C388.214 87.604 388.814 87.268 389.438 86.596L389.978 87.028C389.81 87.364 389.438 87.664 388.862 87.928C388.286 88.192 387.65 88.324 386.954 88.324C384.77 88.324 383.678 87.34 383.678 85.372C383.678 84.532 383.894 83.032 384.326 80.872C384.758 78.712 384.974 77.296 384.974 76.624C384.974 75.592 384.482 75.076 383.498 75.076C382.706 75.076 381.938 75.592 381.194 76.624C380.474 77.656 379.874 79.072 379.394 80.872L378.17 87.604C378.914 87.532 379.526 87.196 380.006 86.596L380.546 87.028C379.826 87.892 378.926 88.324 377.846 88.324C376.766 88.324 375.914 88.048 375.29 87.496C374.69 86.944 374.39 86.224 374.39 85.336C374.39 85 374.582 83.68 374.966 81.376L376.154 74.716C375.434 74.788 374.834 75.124 374.354 75.724L373.814 75.292C374.534 74.428 375.434 73.996 376.514 73.996C377.618 73.996 378.47 74.272 379.07 74.824C379.67 75.376 379.97 76.156 379.97 77.164V77.38C380.954 75.124 382.49 73.996 384.578 73.996C385.994 73.996 387.098 74.404 387.89 75.22C388.682 76.012 389.078 77.116 389.078 78.532C389.078 79.276 388.85 80.716 388.394 82.852C387.938 84.964 387.686 86.548 387.638 87.604Z" fill="#767676"/>
</svg>
