<svg width="705" height="90" viewBox="0 0 705 90" fill="none" xmlns="http://www.w3.org/2000/svg">
<path d="M6.2568 1.72C6.8808 1.72 7.1928 1.972 7.1928 2.476C7.1928 2.764 7.0848 3.088 6.8688 3.448C6.6768 3.808 6.3888 4.264 6.0048 4.816C5.4528 5.608 5.0448 6.268 4.7808 6.796C4.5168 7.324 4.3848 7.864 4.3848 8.416C4.3848 8.632 4.4208 8.908 4.4928 9.244C4.5888 9.556 4.6368 9.784 4.6368 9.928C4.6368 10.48 4.5168 10.924 4.2768 11.26C4.0608 11.572 3.5448 11.728 2.7288 11.728C1.9128 11.728 1.3368 11.524 1.0008 11.116C0.664797 10.708 0.496797 10.252 0.496797 9.748C0.496797 7.828 1.7808 5.452 4.3488 2.62C4.9008 2.02 5.5368 1.72 6.2568 1.72ZM13.2408 1.72C13.8648 1.72 14.1768 1.972 14.1768 2.476C14.1768 2.764 14.0688 3.088 13.8528 3.448C13.6608 3.808 13.3728 4.264 12.9888 4.816C12.4368 5.608 12.0288 6.268 11.7648 6.796C11.5008 7.324 11.3688 7.864 11.3688 8.416C11.3688 8.632 11.4048 8.908 11.4768 9.244C11.5728 9.556 11.6208 9.784 11.6208 9.928C11.6208 10.48 11.5008 10.924 11.2608 11.26C11.0448 11.572 10.5288 11.728 9.7128 11.728C8.8968 11.728 8.3208 11.524 7.9848 11.116C7.6488 10.708 7.4808 10.252 7.4808 9.748C7.4808 7.828 8.7648 5.452 11.3328 2.62C11.8848 2.02 12.5208 1.72 13.2408 1.72ZM24.5982 17.164C23.8542 19.54 22.9902 21.592 22.0062 23.32C21.0222 25.048 20.0022 26.368 18.9462 27.28C17.8902 28.192 16.8822 28.648 15.9222 28.648C13.7142 28.648 12.6102 26.38 12.6102 21.844C12.6102 19.06 12.9462 16.3 13.6182 13.564C14.2902 10.804 15.0342 8.44 15.8502 6.472C16.0902 5.848 16.4022 5.356 16.7862 4.996C17.1702 4.612 17.7102 4.42 18.4062 4.42C19.0542 4.42 19.5702 4.588 19.9542 4.924C20.3382 5.236 20.5302 5.716 20.5302 6.364L20.4942 6.796C20.4942 6.844 20.3502 7.24 20.0622 7.984C19.3422 9.928 18.6942 11.788 18.1182 13.564C17.5662 15.34 17.2182 17.032 17.0742 18.64C17.0022 19.456 16.9662 20.26 16.9662 21.052C16.9662 21.844 17.0502 22.492 17.2182 22.996C17.3862 23.476 17.6262 23.716 17.9382 23.716C18.6342 23.716 19.4742 22.72 20.4582 20.728C21.4662 18.712 22.4262 16.312 23.3382 13.528C24.2502 10.72 24.9222 8.26 25.3542 6.148C25.4502 5.692 25.7262 5.308 26.1822 4.996C26.6382 4.684 27.0342 4.528 27.3702 4.528C27.9702 4.528 28.4022 4.684 28.6662 4.996C28.9542 5.284 29.0982 5.74 29.0982 6.364L29.0622 6.868C29.0622 6.964 29.0382 7.096 28.9902 7.264C28.9422 7.432 28.8942 7.648 28.8462 7.912C27.6942 13.384 26.9982 17.464 26.7582 20.152C26.7342 20.344 26.7222 20.632 26.7222 21.016C26.7222 21.832 26.8302 22.492 27.0462 22.996C27.2862 23.476 27.5862 23.716 27.9462 23.716C29.1222 23.716 30.3102 21.892 31.5102 18.244C32.7102 14.572 33.7782 10.504 34.7142 6.04C34.8102 5.608 35.0142 5.296 35.3262 5.104C35.6622 4.888 36.0582 4.78 36.5142 4.78C37.0902 4.78 37.6782 4.9 38.2782 5.14C38.8782 5.38 39.1782 5.644 39.1782 5.932L38.6022 8.452C37.7142 12.388 36.8142 15.748 35.9022 18.532C35.0142 21.316 33.8382 23.704 32.3742 25.696C30.9342 27.664 29.1822 28.648 27.1182 28.648C25.1022 28.648 24.0942 26.8 24.0942 23.104C24.0942 21.4 24.3102 19.42 24.7422 17.164H24.5982ZM44.9917 16.12C45.5437 15.04 46.2997 14.116 47.2597 13.348C48.2437 12.58 49.2397 11.992 50.2477 11.584C51.2557 11.176 52.0837 10.972 52.7317 10.972C53.9797 10.972 54.8797 11.212 55.4317 11.692C55.9837 12.148 56.2597 12.88 56.2597 13.888C54.8437 17.584 53.9077 21.568 53.4517 25.84L53.9557 27.604C53.6677 28.156 53.2837 28.588 52.8037 28.9C52.3237 29.236 51.5917 29.404 50.6077 29.404C50.0317 29.404 49.6117 29.212 49.3477 28.828C49.0837 28.444 48.9517 27.964 48.9517 27.388C48.9517 25.78 49.1797 24.016 49.6357 22.096C50.1157 20.152 50.6677 18.172 51.2917 16.156C51.5317 15.388 51.6517 14.992 51.6517 14.968C51.6517 14.632 51.4597 14.464 51.0757 14.464C50.5717 14.464 49.8397 14.836 48.8797 15.58C47.9197 16.324 46.9237 17.584 45.8917 19.36C44.8597 21.112 43.9957 23.416 43.2997 26.272C43.2757 26.392 43.2157 26.644 43.1197 27.028C43.0237 27.412 42.8077 27.688 42.4717 27.856C42.1357 28.024 41.6197 28.108 40.9237 28.108C40.0837 28.108 39.4357 28.024 38.9797 27.856C38.5237 27.664 38.2957 27.304 38.2957 26.776C41.4397 14.416 43.3837 6.688 44.1277 3.592C44.1037 3.28 44.0797 2.872 44.0557 2.368C44.0557 1.84 44.0557 1.432 44.0557 1.144C44.1277 0.807998 44.3797 0.555999 44.8117 0.387999C45.2677 0.195999 45.7237 0.0999987 46.1797 0.0999987C46.9477 0.0999987 47.5957 0.303999 48.1237 0.711999C48.6517 1.12 48.9397 1.636 48.9877 2.26L44.9917 16.12ZM64.9146 28.756C62.5626 28.756 60.8466 28.288 59.7666 27.352C58.6866 26.416 58.1466 25.168 58.1466 23.608C58.1466 21.328 58.7106 19.216 59.8386 17.272C60.9906 15.328 62.5146 13.792 64.4106 12.664C66.3306 11.512 68.3946 10.936 70.6026 10.936C71.9466 10.936 73.0746 11.32 73.9866 12.088C74.8986 12.832 75.3546 13.936 75.3546 15.4C75.3546 16.24 75.0786 16.936 74.5266 17.488C73.9986 18.016 73.2306 18.496 72.2226 18.928C71.2146 19.336 69.5826 19.924 67.3266 20.692C65.2866 21.364 63.6306 21.928 62.3586 22.384C62.2626 22.744 62.2146 23.116 62.2146 23.5C62.2146 24.172 62.4906 24.688 63.0426 25.048C63.6186 25.408 64.4226 25.588 65.4546 25.588C66.1026 25.588 66.8466 25.456 67.6866 25.192C68.5266 24.928 69.0546 24.592 69.2706 24.184C70.0866 22.696 70.8306 21.952 71.5026 21.952C72.4866 21.952 73.1466 22.144 73.4826 22.528C73.8426 22.888 74.0346 23.296 74.0586 23.752C73.7706 24.52 73.2066 25.3 72.3666 26.092C71.5266 26.86 70.4586 27.496 69.1626 28C67.8666 28.504 66.4506 28.756 64.9146 28.756ZM63.3666 19.072C65.7426 18.304 67.6986 17.596 69.2346 16.948C70.7706 16.276 71.5386 15.616 71.5386 14.968C71.5386 14.68 71.3826 14.452 71.0706 14.284C70.7586 14.092 70.4226 13.996 70.0626 13.996C69.3426 13.996 68.5146 14.272 67.5786 14.824C66.6666 15.376 65.8146 16.048 65.0226 16.84C64.2306 17.632 63.6786 18.376 63.3666 19.072ZM80.5988 10.54C81.7748 9.94 82.7108 9.64 83.4068 9.64C84.2228 9.64 84.6788 10.06 84.7748 10.9L83.5868 15.328C84.0908 14.632 84.8348 13.948 85.8188 13.276C86.8028 12.604 87.7868 12.052 88.7708 11.62C89.7788 11.188 90.5828 10.972 91.1828 10.972C92.4548 10.972 93.3788 11.212 93.9548 11.692C94.5308 12.148 94.8188 12.88 94.8188 13.888C94.5788 15.232 94.2188 16.852 93.7388 18.748C93.2588 20.62 92.9588 21.808 92.8388 22.312C92.3108 24.28 91.9388 25.756 91.7228 26.74C91.5788 27.34 91.4348 27.76 91.2908 28C91.1708 28.216 90.9428 28.372 90.6068 28.468C90.2948 28.564 89.7428 28.612 88.9508 28.612C88.5188 28.612 88.1108 28.54 87.7268 28.396C87.3668 28.252 87.1868 28.012 87.1868 27.676C87.2588 26.884 87.4988 25.672 87.9068 24.04C88.3388 22.384 88.9148 20.248 89.6348 17.632C90.1148 16 90.3548 15.112 90.3548 14.968C90.3548 14.632 90.1628 14.464 89.7788 14.464C89.2268 14.464 88.3988 14.848 87.2948 15.616C86.1908 16.36 85.0508 17.62 83.8748 19.396C82.6988 21.148 81.7748 23.44 81.1028 26.272C81.0548 26.416 80.9948 26.68 80.9228 27.064C80.8508 27.448 80.6588 27.724 80.3468 27.892C80.0348 28.036 79.5308 28.108 78.8348 28.108C78.0428 28.108 77.4548 28.024 77.0708 27.856C76.7108 27.688 76.5308 27.328 76.5308 26.776L76.9268 25.228C78.3428 19.684 79.5668 14.788 80.5988 10.54ZM117.169 20.224C116.377 22.864 115.333 24.928 114.037 26.416C112.765 27.904 111.457 28.648 110.113 28.648C107.641 28.648 106.405 26.272 106.405 21.52C106.405 19.792 106.465 18.34 106.585 17.164C106.705 15.988 106.909 14.728 107.197 13.384C107.269 12.952 107.497 12.592 107.881 12.304C108.289 12.016 108.817 11.872 109.465 11.872C110.713 11.872 111.349 12.424 111.373 13.528C111.373 13.648 111.313 14.044 111.193 14.716C110.953 16.084 110.749 17.308 110.581 18.388C110.437 19.468 110.365 20.56 110.365 21.664C110.365 23.92 110.713 25.048 111.409 25.048C112.057 25.048 112.705 24.328 113.353 22.888C114.025 21.424 114.625 19.684 115.153 17.668C115.681 15.652 116.077 13.816 116.341 12.16C116.389 11.848 116.617 11.572 117.025 11.332C117.457 11.092 117.829 10.972 118.141 10.972C118.837 10.972 119.413 11.128 119.869 11.44C120.349 11.728 120.589 12.148 120.589 12.7C120.589 12.844 120.517 13.312 120.373 14.104C119.725 17.608 119.401 20.284 119.401 22.132C119.401 22.996 119.521 23.704 119.761 24.256C120.025 24.784 120.361 25.048 120.769 25.048C121.561 25.048 122.281 24.22 122.929 22.564C123.601 20.908 124.141 18.916 124.549 16.588C124.957 14.26 125.185 12.16 125.233 10.288C125.257 9.976 125.413 9.748 125.701 9.604C126.013 9.436 126.385 9.352 126.817 9.352C127.345 9.352 127.861 9.448 128.365 9.64C128.869 9.808 129.133 10 129.157 10.216C128.269 22.504 125.341 28.648 120.373 28.648C119.149 28.648 118.297 28.144 117.817 27.136C117.337 26.128 117.097 24.772 117.097 23.068C117.097 22.42 117.169 21.472 117.313 20.224H117.169ZM137.055 28.756C134.703 28.756 132.987 28.288 131.907 27.352C130.827 26.416 130.287 25.168 130.287 23.608C130.287 21.328 130.851 19.216 131.979 17.272C133.131 15.328 134.655 13.792 136.551 12.664C138.471 11.512 140.535 10.936 142.743 10.936C144.087 10.936 145.215 11.32 146.127 12.088C147.039 12.832 147.495 13.936 147.495 15.4C147.495 17.032 146.883 18.328 145.659 19.288C144.459 20.224 142.935 20.92 141.087 21.376C139.263 21.808 137.067 22.144 134.499 22.384C134.403 22.744 134.355 23.116 134.355 23.5C134.355 24.172 134.631 24.688 135.183 25.048C135.759 25.408 136.563 25.588 137.595 25.588C138.363 25.588 139.239 25.432 140.223 25.12C141.231 24.808 141.999 24.292 142.527 23.572C142.815 23.164 143.175 22.84 143.607 22.6C144.063 22.36 144.495 22.24 144.903 22.24C145.287 22.24 145.599 22.372 145.839 22.636C146.079 22.876 146.199 23.248 146.199 23.752C145.911 24.52 145.347 25.3 144.507 26.092C143.667 26.86 142.599 27.496 141.303 28C140.007 28.504 138.591 28.756 137.055 28.756ZM135.507 19.072C136.347 19.048 137.403 18.916 138.675 18.676C139.947 18.436 141.099 18.016 142.131 17.416C143.163 16.792 143.679 15.976 143.679 14.968C143.679 14.68 143.523 14.452 143.211 14.284C142.899 14.092 142.563 13.996 142.203 13.996C141.483 13.996 140.655 14.272 139.719 14.824C138.807 15.376 137.955 16.048 137.163 16.84C136.371 17.632 135.819 18.376 135.507 19.072ZM167.023 8.416C164.311 19.816 162.715 26.332 162.235 27.964C162.187 28.108 161.935 28.288 161.479 28.504C161.047 28.744 160.747 28.864 160.579 28.864C159.907 28.864 159.259 28.696 158.635 28.36C158.011 28.024 157.675 27.484 157.627 26.74C157.651 26.692 157.771 26.44 157.987 25.984C158.203 25.528 158.419 24.88 158.635 24.04C159.187 21.976 159.811 19.528 160.507 16.696C161.227 13.864 161.707 11.968 161.947 11.008L163.639 4.132C163.615 3.94 163.603 2.944 163.603 1.144C163.675 0.831998 163.939 0.579998 164.395 0.387999C164.875 0.195999 165.307 0.0999987 165.691 0.0999987C166.291 0.0999987 166.903 0.303999 167.527 0.711999C168.175 1.12 168.511 1.612 168.535 2.188L167.023 8.416ZM175.273 28.756C172.897 28.756 171.157 28.288 170.053 27.352C168.973 26.416 168.433 25.168 168.433 23.608C168.433 21.28 168.913 19.168 169.873 17.272C170.833 15.352 172.165 13.852 173.869 12.772C175.573 11.668 177.517 11.116 179.701 11.116C181.069 11.116 182.209 11.5 183.121 12.268C184.057 13.036 184.525 14.176 184.525 15.688C184.525 17.296 183.997 18.556 182.941 19.468C181.909 20.38 180.553 21.04 178.873 21.448C177.217 21.832 175.129 22.144 172.609 22.384C172.537 22.696 172.501 23.068 172.501 23.5C172.501 24.172 172.789 24.688 173.365 25.048C173.941 25.408 174.745 25.588 175.777 25.588C176.521 25.588 177.385 25.432 178.369 25.12C179.377 24.808 180.145 24.292 180.673 23.572C180.985 23.164 181.345 22.84 181.753 22.6C182.185 22.36 182.605 22.24 183.013 22.24C183.397 22.24 183.709 22.372 183.949 22.636C184.213 22.876 184.345 23.248 184.345 23.752C184.081 24.52 183.529 25.3 182.689 26.092C181.849 26.86 180.781 27.496 179.485 28C178.213 28.504 176.809 28.756 175.273 28.756ZM173.545 19.072C175.081 19.048 176.653 18.76 178.261 18.208C179.869 17.632 180.673 16.636 180.673 15.22C180.673 14.884 180.517 14.632 180.205 14.464C179.893 14.272 179.557 14.176 179.197 14.176C178.501 14.176 177.769 14.44 177.001 14.968C176.257 15.472 175.573 16.108 174.949 16.876C174.325 17.62 173.857 18.352 173.545 19.072ZM199.732 26.128C199.78 26.752 199.864 27.316 199.984 27.82C199.936 27.964 199.72 28.108 199.336 28.252C198.976 28.396 198.664 28.468 198.4 28.468C197.536 28.468 196.912 28.336 196.528 28.072C196.168 27.832 195.988 27.46 195.988 26.956C195.988 26.476 196.036 25.996 196.132 25.516C195.604 26.236 194.824 26.836 193.792 27.316C192.784 27.772 191.968 28 191.344 28C189.736 28 188.392 27.532 187.312 26.596C186.256 25.66 185.728 24.16 185.728 22.096C185.728 20.152 186.184 18.328 187.096 16.624C188.032 14.896 189.316 13.516 190.948 12.484C192.58 11.428 194.392 10.9 196.384 10.9C196.768 10.9 197.272 11.008 197.896 11.224C198.52 11.416 199.144 11.764 199.768 12.268C200.416 12.748 200.956 13.372 201.388 14.14C201.58 14.14 201.808 14.236 202.072 14.428C202.336 14.62 202.468 14.812 202.468 15.004C202.468 15.22 202.432 15.436 202.36 15.652L199.732 26.128ZM198.112 16.048C197.968 15.52 197.68 15.076 197.248 14.716C196.84 14.356 196.468 14.176 196.132 14.176C195.028 14.176 193.984 14.572 193 15.364C192.04 16.132 191.26 17.092 190.66 18.244C190.06 19.396 189.76 20.488 189.76 21.52C189.76 22.528 189.88 23.356 190.12 24.004C190.36 24.652 190.828 24.976 191.524 24.976C192.124 24.976 192.808 24.796 193.576 24.436C194.368 24.076 195.064 23.596 195.664 22.996C196.288 22.372 196.696 21.724 196.888 21.052L198.112 16.048ZM208.226 26.632C208.202 26.776 208.142 27.064 208.046 27.496C207.974 27.904 207.77 28.192 207.434 28.36C207.122 28.528 206.618 28.612 205.922 28.612C205.13 28.612 204.554 28.528 204.194 28.36C203.834 28.192 203.654 27.832 203.654 27.28C203.726 26.992 204.242 24.94 205.202 21.124C205.898 18.172 206.414 16.096 206.75 14.896C207.11 13.192 207.53 12.076 208.01 11.548C208.49 10.996 209.042 10.72 209.666 10.72C210.506 10.72 211.046 10.84 211.286 11.08C211.55 11.32 211.682 11.632 211.682 12.016L211.25 14.14C212.018 13.204 212.906 12.436 213.914 11.836C214.946 11.212 215.858 10.9 216.65 10.9C217.682 10.9 218.486 11.08 219.062 11.44C219.638 11.8 219.926 12.268 219.926 12.844C219.926 13.276 219.65 13.624 219.098 13.888C218.57 14.128 217.874 14.284 217.01 14.356C215.714 14.476 214.382 15.04 213.014 16.048C211.67 17.056 210.662 18.244 209.99 19.612L208.226 26.632ZM222.38 10.54C223.508 9.94 224.444 9.64 225.188 9.64C226.004 9.64 226.46 10.06 226.556 10.9L225.116 16.264C226.7 13.984 228.176 12.412 229.544 11.548C230.912 10.66 232.136 10.216 233.216 10.216C234.488 10.216 235.412 10.456 235.988 10.936C236.588 11.392 236.9 12.124 236.924 13.132C236.108 15.34 235.424 17.44 234.872 19.432C234.344 21.424 234.08 23.26 234.08 24.94V25.768C234.08 26.44 233.888 26.884 233.504 27.1C233.144 27.292 232.412 27.388 231.308 27.388C230.876 27.388 230.468 27.316 230.084 27.172C229.724 27.028 229.544 26.788 229.544 26.452C229.544 25.492 229.76 24.088 230.192 22.24C230.624 20.392 231.104 18.568 231.632 16.768C232.184 14.968 232.46 14.116 232.46 14.212C232.46 13.876 232.268 13.708 231.884 13.708C231.38 13.708 230.564 14.152 229.436 15.04C228.308 15.928 227.156 17.32 225.98 19.216C224.804 21.088 223.868 23.44 223.172 26.272C223.148 26.416 223.1 26.68 223.028 27.064C222.956 27.448 222.764 27.724 222.452 27.892C222.14 28.036 221.636 28.108 220.94 28.108C220.148 28.108 219.56 28.024 219.176 27.856C218.792 27.688 218.6 27.328 218.6 26.776L219.68 22.168C219.968 20.92 220.34 19.336 220.796 17.416C221.252 15.472 221.78 13.18 222.38 10.54ZM253.006 24.04C253.006 24.592 253.15 25.036 253.438 25.372C253.726 25.684 254.134 25.84 254.662 25.84C255.382 25.84 255.97 25.636 256.426 25.228C256.906 24.796 257.41 24.196 257.938 23.428C258.322 22.876 258.634 22.48 258.874 22.24C259.114 22 259.39 21.88 259.702 21.88C260.326 21.88 260.77 21.964 261.034 22.132C261.298 22.276 261.43 22.588 261.43 23.068C261.43 23.284 261.406 23.548 261.358 23.86C261.31 24.148 261.25 24.364 261.178 24.508C260.602 25.732 259.654 26.788 258.334 27.676C257.038 28.564 255.562 29.008 253.906 29.008C252.25 29.008 251.002 28.612 250.162 27.82C249.322 27.004 248.902 25.852 248.902 24.364C248.902 24.148 249.01 23.584 249.226 22.672C249.442 21.76 249.718 20.668 250.054 19.396L251.062 15.292L248.866 15.472C248.578 15.472 248.362 15.364 248.218 15.148C248.074 14.932 248.002 14.668 248.002 14.356C248.002 13.756 248.218 13.156 248.65 12.556C248.698 12.484 248.938 12.412 249.37 12.34C249.802 12.268 250.33 12.196 250.954 12.124L251.926 12.016L253.15 6.76C253.39 6.136 253.75 5.656 254.23 5.32C254.734 4.96 255.202 4.78 255.634 4.78C256.114 4.78 256.522 4.924 256.858 5.212C257.194 5.5 257.374 5.836 257.398 6.22L256.102 11.62C257.038 11.5 257.902 11.404 258.694 11.332C259.51 11.236 260.146 11.188 260.602 11.188C261.514 11.188 261.97 11.716 261.97 12.772C261.97 13.18 261.79 13.552 261.43 13.888C261.094 14.2 260.722 14.392 260.314 14.464L255.274 14.968L253.006 24.04ZM270.341 28.36C268.229 28.36 266.585 27.64 265.409 26.2C264.233 24.76 263.645 22.924 263.645 20.692C263.645 18.82 264.041 17.104 264.833 15.544C265.649 13.984 266.777 12.76 268.217 11.872C269.681 10.96 271.349 10.504 273.221 10.504C275.309 10.504 276.713 10.684 277.433 11.044C277.649 11.14 277.841 11.296 278.009 11.512C278.177 11.704 278.261 11.896 278.261 12.088C278.261 12.328 278.201 12.58 278.081 12.844C277.985 13.108 277.829 13.312 277.613 13.456C278.165 13.504 278.633 13.78 279.017 14.284C279.401 14.764 279.689 15.328 279.881 15.976C280.073 16.624 280.169 17.188 280.169 17.668C280.169 19.372 279.749 21.052 278.909 22.708C278.093 24.364 276.941 25.72 275.453 26.776C273.965 27.832 272.261 28.36 270.341 28.36ZM270.881 25.372C271.649 25.372 272.429 25 273.221 24.256C274.037 23.488 274.709 22.48 275.237 21.232C275.765 19.984 276.029 18.676 276.029 17.308C276.029 17.044 275.933 16.804 275.741 16.588C275.573 16.372 275.333 16.144 275.021 15.904C274.853 15.784 274.697 15.664 274.553 15.544C274.433 15.4 274.373 15.268 274.373 15.148C274.373 15.052 274.397 14.92 274.445 14.752C274.517 14.584 274.553 14.464 274.553 14.392C274.553 14.032 274.109 13.852 273.221 13.852C272.237 13.852 271.325 14.248 270.485 15.04C269.669 15.832 269.021 16.84 268.541 18.064C268.085 19.288 267.857 20.488 267.857 21.664C267.857 22.36 268.013 22.996 268.325 23.572C268.637 24.124 269.021 24.568 269.477 24.904C269.957 25.216 270.425 25.372 270.881 25.372ZM291.214 26.812C289.414 28.012 287.698 28.612 286.066 28.612C285.442 28.612 284.734 28.408 283.942 28C283.174 27.592 282.514 27.04 281.962 26.344C281.41 25.648 281.134 24.88 281.134 24.04C281.134 22.696 281.578 20.98 282.466 18.892C283.354 16.804 284.602 14.98 286.21 13.42C287.842 11.86 289.738 11.08 291.898 11.08C293.722 11.08 295.246 11.38 296.47 11.98C297.694 12.58 298.306 13.444 298.306 14.572C298.306 14.644 298.258 14.896 298.162 15.328C296.938 20.632 295.846 25.048 294.886 28.576C294.334 30.64 293.566 32.224 292.582 33.328C291.622 34.456 290.53 35.212 289.306 35.596C288.106 35.98 286.69 36.172 285.058 36.172C283.882 36.172 282.814 35.86 281.854 35.236C280.918 34.612 280.45 33.724 280.45 32.572C280.45 31.756 280.966 31.348 281.998 31.348C282.238 31.348 282.514 31.528 282.826 31.888C283.21 32.296 283.606 32.608 284.014 32.824C284.446 33.064 285.07 33.184 285.886 33.184C287.206 33.184 288.346 32.632 289.306 31.528C290.266 30.424 290.902 28.852 291.214 26.812ZM291.97 23.428C292.162 22.372 292.486 21.124 292.942 19.684C293.422 18.22 294.058 16.756 294.85 15.292C294.73 14.812 294.346 14.5 293.698 14.356C293.074 14.188 292.51 14.104 292.006 14.104C291.118 14.104 290.158 14.704 289.126 15.904C288.094 17.104 287.206 18.508 286.462 20.116C285.742 21.7 285.382 22.984 285.382 23.968C285.382 24.448 285.514 24.796 285.778 25.012C286.042 25.204 286.378 25.3 286.786 25.3C287.338 25.3 288.214 25.096 289.414 24.688C290.638 24.256 291.49 23.836 291.97 23.428ZM306.546 28.756C304.17 28.756 302.43 28.288 301.326 27.352C300.246 26.416 299.706 25.168 299.706 23.608C299.706 21.28 300.186 19.168 301.146 17.272C302.106 15.352 303.438 13.852 305.142 12.772C306.846 11.668 308.79 11.116 310.974 11.116C312.342 11.116 313.482 11.5 314.394 12.268C315.33 13.036 315.798 14.176 315.798 15.688C315.798 17.296 315.27 18.556 314.214 19.468C313.182 20.38 311.826 21.04 310.146 21.448C308.49 21.832 306.402 22.144 303.882 22.384C303.81 22.696 303.774 23.068 303.774 23.5C303.774 24.172 304.062 24.688 304.638 25.048C305.214 25.408 306.018 25.588 307.05 25.588C307.794 25.588 308.658 25.432 309.642 25.12C310.65 24.808 311.418 24.292 311.946 23.572C312.258 23.164 312.618 22.84 313.026 22.6C313.458 22.36 313.878 22.24 314.286 22.24C314.67 22.24 314.982 22.372 315.222 22.636C315.486 22.876 315.618 23.248 315.618 23.752C315.354 24.52 314.802 25.3 313.962 26.092C313.122 26.86 312.054 27.496 310.758 28C309.486 28.504 308.082 28.756 306.546 28.756ZM304.818 19.072C306.354 19.048 307.926 18.76 309.534 18.208C311.142 17.632 311.946 16.636 311.946 15.22C311.946 14.884 311.79 14.632 311.478 14.464C311.166 14.272 310.83 14.176 310.47 14.176C309.774 14.176 309.042 14.44 308.274 14.968C307.53 15.472 306.846 16.108 306.222 16.876C305.598 17.62 305.13 18.352 304.818 19.072ZM319.197 15.472C318.909 15.472 318.693 15.364 318.549 15.148C318.405 14.908 318.333 14.608 318.333 14.248C318.333 13.744 318.525 13.18 318.909 12.556C319.125 12.34 320.289 12.112 322.401 11.872L323.949 4.888C324.117 4.12 324.393 3.556 324.777 3.196C325.185 2.812 325.629 2.62 326.109 2.62C326.685 2.62 327.201 2.824 327.657 3.232C328.137 3.64 328.389 4.12 328.413 4.672C328.413 4.816 328.389 5.008 328.341 5.248L326.793 11.44C328.377 11.32 329.397 11.26 329.853 11.26C330.261 11.26 330.645 11.356 331.005 11.548C331.389 11.716 331.689 11.92 331.905 12.16C332.121 12.4 332.229 12.604 332.229 12.772C332.229 13.18 332.061 13.552 331.725 13.888C331.413 14.2 331.053 14.392 330.645 14.464L325.929 14.896L322.833 27.28C322.473 28.288 321.981 28.792 321.357 28.792C320.853 28.792 320.397 28.48 319.989 27.856C319.605 27.232 319.413 26.524 319.413 25.732C319.413 25.42 319.449 25.108 319.521 24.796L321.645 15.256L319.197 15.472ZM337.281 16.12C337.833 15.04 338.589 14.116 339.549 13.348C340.533 12.58 341.529 11.992 342.537 11.584C343.545 11.176 344.373 10.972 345.021 10.972C346.269 10.972 347.169 11.212 347.721 11.692C348.273 12.148 348.549 12.88 348.549 13.888C347.133 17.584 346.197 21.568 345.741 25.84L346.245 27.604C345.957 28.156 345.573 28.588 345.093 28.9C344.613 29.236 343.881 29.404 342.897 29.404C342.321 29.404 341.901 29.212 341.637 28.828C341.373 28.444 341.241 27.964 341.241 27.388C341.241 25.78 341.469 24.016 341.925 22.096C342.405 20.152 342.957 18.172 343.581 16.156C343.821 15.388 343.941 14.992 343.941 14.968C343.941 14.632 343.749 14.464 343.365 14.464C342.861 14.464 342.129 14.836 341.169 15.58C340.209 16.324 339.213 17.584 338.181 19.36C337.149 21.112 336.285 23.416 335.589 26.272C335.565 26.392 335.505 26.644 335.409 27.028C335.313 27.412 335.097 27.688 334.761 27.856C334.425 28.024 333.909 28.108 333.213 28.108C332.373 28.108 331.725 28.024 331.269 27.856C330.813 27.664 330.585 27.304 330.585 26.776C333.729 14.416 335.673 6.688 336.417 3.592C336.393 3.28 336.369 2.872 336.345 2.368C336.345 1.84 336.345 1.432 336.345 1.144C336.417 0.807998 336.669 0.555999 337.101 0.387999C337.557 0.195999 338.013 0.0999987 338.469 0.0999987C339.237 0.0999987 339.885 0.303999 340.413 0.711999C340.941 1.12 341.229 1.636 341.277 2.26L337.281 16.12ZM357.204 28.756C354.852 28.756 353.136 28.288 352.056 27.352C350.976 26.416 350.436 25.168 350.436 23.608C350.436 21.328 351 19.216 352.128 17.272C353.28 15.328 354.804 13.792 356.7 12.664C358.62 11.512 360.684 10.936 362.892 10.936C364.236 10.936 365.364 11.32 366.276 12.088C367.188 12.832 367.644 13.936 367.644 15.4C367.644 16.24 367.368 16.936 366.816 17.488C366.288 18.016 365.52 18.496 364.512 18.928C363.504 19.336 361.872 19.924 359.616 20.692C357.576 21.364 355.92 21.928 354.648 22.384C354.552 22.744 354.504 23.116 354.504 23.5C354.504 24.172 354.78 24.688 355.332 25.048C355.908 25.408 356.712 25.588 357.744 25.588C358.392 25.588 359.136 25.456 359.976 25.192C360.816 24.928 361.344 24.592 361.56 24.184C362.376 22.696 363.12 21.952 363.792 21.952C364.776 21.952 365.436 22.144 365.772 22.528C366.132 22.888 366.324 23.296 366.348 23.752C366.06 24.52 365.496 25.3 364.656 26.092C363.816 26.86 362.748 27.496 361.452 28C360.156 28.504 358.74 28.756 357.204 28.756ZM355.656 19.072C358.032 18.304 359.988 17.596 361.524 16.948C363.06 16.276 363.828 15.616 363.828 14.968C363.828 14.68 363.672 14.452 363.36 14.284C363.048 14.092 362.712 13.996 362.352 13.996C361.632 13.996 360.804 14.272 359.868 14.824C358.956 15.376 358.104 16.048 357.312 16.84C356.52 17.632 355.968 18.376 355.656 19.072ZM373.32 26.632C373.296 26.776 373.236 27.064 373.14 27.496C373.068 27.904 372.864 28.192 372.528 28.36C372.216 28.528 371.712 28.612 371.016 28.612C370.224 28.612 369.648 28.528 369.288 28.36C368.928 28.192 368.748 27.832 368.748 27.28C368.82 26.992 369.336 24.94 370.296 21.124C370.992 18.172 371.508 16.096 371.844 14.896C372.204 13.192 372.624 12.076 373.104 11.548C373.584 10.996 374.136 10.72 374.76 10.72C375.6 10.72 376.14 10.84 376.38 11.08C376.644 11.32 376.776 11.632 376.776 12.016L376.344 14.14C377.112 13.204 378 12.436 379.008 11.836C380.04 11.212 380.952 10.9 381.744 10.9C382.776 10.9 383.58 11.08 384.156 11.44C384.732 11.8 385.02 12.268 385.02 12.844C385.02 13.276 384.744 13.624 384.192 13.888C383.664 14.128 382.968 14.284 382.104 14.356C380.808 14.476 379.476 15.04 378.108 16.048C376.764 17.056 375.756 18.244 375.084 19.612L373.32 26.632ZM382.937 34.516C382.193 34.516 381.821 34.264 381.821 33.76C381.821 33.256 381.941 32.776 382.181 32.32C382.397 31.888 382.745 31.336 383.225 30.664C383.681 30.04 384.029 29.5 384.269 29.044C384.509 28.588 384.629 28.108 384.629 27.604C384.629 27.388 384.605 27.136 384.557 26.848C384.509 26.56 384.485 26.308 384.485 26.092C384.485 25.588 384.641 25.204 384.953 24.94C385.265 24.652 385.913 24.508 386.897 24.508C387.617 24.508 388.205 24.736 388.661 25.192C389.117 25.624 389.345 26.056 389.345 26.488C389.345 27.472 388.961 28.528 388.193 29.656C387.425 30.784 386.357 32.104 384.989 33.616C384.725 33.88 384.413 34.096 384.053 34.264C383.693 34.432 383.321 34.516 382.937 34.516ZM414.485 20.224C413.693 22.864 412.649 24.928 411.353 26.416C410.081 27.904 408.773 28.648 407.429 28.648C404.957 28.648 403.721 26.272 403.721 21.52C403.721 19.792 403.781 18.34 403.901 17.164C404.021 15.988 404.225 14.728 404.513 13.384C404.585 12.952 404.813 12.592 405.197 12.304C405.605 12.016 406.133 11.872 406.781 11.872C408.029 11.872 408.665 12.424 408.689 13.528C408.689 13.648 408.629 14.044 408.509 14.716C408.269 16.084 408.065 17.308 407.897 18.388C407.753 19.468 407.681 20.56 407.681 21.664C407.681 23.92 408.029 25.048 408.725 25.048C409.373 25.048 410.021 24.328 410.669 22.888C411.341 21.424 411.941 19.684 412.469 17.668C412.997 15.652 413.393 13.816 413.657 12.16C413.705 11.848 413.933 11.572 414.341 11.332C414.773 11.092 415.145 10.972 415.457 10.972C416.153 10.972 416.729 11.128 417.185 11.44C417.665 11.728 417.905 12.148 417.905 12.7C417.905 12.844 417.833 13.312 417.689 14.104C417.041 17.608 416.717 20.284 416.717 22.132C416.717 22.996 416.837 23.704 417.077 24.256C417.341 24.784 417.677 25.048 418.085 25.048C418.877 25.048 419.597 24.22 420.245 22.564C420.917 20.908 421.457 18.916 421.865 16.588C422.273 14.26 422.501 12.16 422.549 10.288C422.573 9.976 422.729 9.748 423.017 9.604C423.329 9.436 423.701 9.352 424.133 9.352C424.661 9.352 425.177 9.448 425.681 9.64C426.185 9.808 426.449 10 426.473 10.216C425.585 22.504 422.657 28.648 417.689 28.648C416.465 28.648 415.613 28.144 415.133 27.136C414.653 26.128 414.413 24.772 414.413 23.068C414.413 22.42 414.485 21.472 414.629 20.224H414.485ZM434.372 28.756C432.02 28.756 430.304 28.288 429.224 27.352C428.144 26.416 427.604 25.168 427.604 23.608C427.604 21.328 428.168 19.216 429.296 17.272C430.448 15.328 431.972 13.792 433.868 12.664C435.788 11.512 437.852 10.936 440.06 10.936C441.404 10.936 442.532 11.32 443.444 12.088C444.356 12.832 444.812 13.936 444.812 15.4C444.812 17.032 444.2 18.328 442.976 19.288C441.776 20.224 440.252 20.92 438.404 21.376C436.58 21.808 434.384 22.144 431.816 22.384C431.72 22.744 431.672 23.116 431.672 23.5C431.672 24.172 431.948 24.688 432.5 25.048C433.076 25.408 433.88 25.588 434.912 25.588C435.68 25.588 436.556 25.432 437.54 25.12C438.548 24.808 439.316 24.292 439.844 23.572C440.132 23.164 440.492 22.84 440.924 22.6C441.38 22.36 441.812 22.24 442.22 22.24C442.604 22.24 442.916 22.372 443.156 22.636C443.396 22.876 443.516 23.248 443.516 23.752C443.228 24.52 442.664 25.3 441.824 26.092C440.984 26.86 439.916 27.496 438.62 28C437.324 28.504 435.908 28.756 434.372 28.756ZM432.824 19.072C433.664 19.048 434.72 18.916 435.992 18.676C437.264 18.436 438.416 18.016 439.448 17.416C440.48 16.792 440.996 15.976 440.996 14.968C440.996 14.68 440.84 14.452 440.528 14.284C440.216 14.092 439.88 13.996 439.52 13.996C438.8 13.996 437.972 14.272 437.036 14.824C436.124 15.376 435.272 16.048 434.48 16.84C433.688 17.632 433.136 18.376 432.824 19.072ZM459.587 36.172C458.483 36.172 457.439 35.932 456.455 35.452C455.495 34.972 454.691 34.348 454.043 33.58C453.371 32.836 452.891 32.08 452.603 31.312C452.627 30.88 452.843 30.448 453.251 30.016C453.635 29.608 454.319 29.404 455.303 29.404C455.615 29.404 455.879 29.524 456.095 29.764C456.335 30.004 456.599 30.388 456.887 30.916C457.271 31.636 457.667 32.188 458.075 32.572C458.507 32.98 459.095 33.184 459.839 33.184C460.679 33.184 461.483 32.848 462.251 32.176C463.043 31.528 463.715 30.64 464.267 29.512C464.843 28.384 465.239 27.136 465.455 25.768C464.927 26.488 464.315 27.04 463.619 27.424C462.947 27.808 462.311 28 461.711 28C459.791 28 458.267 27.58 457.139 26.74C456.035 25.876 455.483 24.352 455.483 22.168C455.483 20.2 456.023 18.364 457.103 16.66C458.207 14.956 459.671 13.6 461.495 12.592C463.319 11.584 465.275 11.08 467.363 11.08C468.731 11.08 469.739 11.356 470.387 11.908C471.059 12.46 471.467 13.156 471.611 13.996C472.019 14.188 472.235 14.38 472.259 14.572C472.259 14.644 472.211 14.896 472.115 15.328C471.659 17.296 470.699 21.184 469.235 26.992L468.839 28.576C468.239 30.904 467.087 32.752 465.383 34.12C463.703 35.488 461.771 36.172 459.587 36.172ZM467.723 14.788C467.531 14.452 467.339 14.236 467.147 14.14C466.979 14.044 466.715 13.996 466.355 13.996C465.227 13.996 464.135 14.368 463.079 15.112C462.023 15.832 461.171 16.78 460.523 17.956C459.875 19.108 459.551 20.296 459.551 21.52C459.551 22.408 459.707 23.176 460.019 23.824C460.355 24.472 460.883 24.844 461.603 24.94C462.563 24.772 463.463 24.34 464.303 23.644C465.167 22.948 465.755 22.048 466.067 20.944L467.723 14.788ZM478.015 26.632C477.991 26.776 477.931 27.064 477.835 27.496C477.763 27.904 477.559 28.192 477.223 28.36C476.911 28.528 476.407 28.612 475.711 28.612C474.919 28.612 474.343 28.528 473.983 28.36C473.623 28.192 473.443 27.832 473.443 27.28C473.515 26.992 474.031 24.94 474.991 21.124C475.687 18.172 476.203 16.096 476.539 14.896C476.899 13.192 477.319 12.076 477.799 11.548C478.279 10.996 478.831 10.72 479.455 10.72C480.295 10.72 480.835 10.84 481.075 11.08C481.339 11.32 481.471 11.632 481.471 12.016L481.039 14.14C481.807 13.204 482.695 12.436 483.703 11.836C484.735 11.212 485.647 10.9 486.439 10.9C487.471 10.9 488.275 11.08 488.851 11.44C489.427 11.8 489.715 12.268 489.715 12.844C489.715 13.276 489.439 13.624 488.887 13.888C488.359 14.128 487.663 14.284 486.799 14.356C485.503 14.476 484.171 15.04 482.803 16.048C481.459 17.056 480.451 18.244 479.779 19.612L478.015 26.632ZM495.625 28.36C494.209 28.36 492.985 28.024 491.953 27.352C490.921 26.68 490.129 25.768 489.577 24.616C489.049 23.464 488.785 22.156 488.785 20.692C488.785 18.772 489.157 17.044 489.901 15.508C490.669 13.948 491.749 12.724 493.141 11.836C494.533 10.948 496.153 10.504 498.001 10.504C500.041 10.504 501.421 10.684 502.141 11.044C502.333 11.14 502.513 11.296 502.681 11.512C502.873 11.704 502.981 11.896 503.005 12.088C502.957 12.736 502.741 13.192 502.357 13.456C502.909 13.504 503.365 13.78 503.725 14.284C504.109 14.788 504.397 15.376 504.589 16.048C504.781 16.696 504.877 17.284 504.877 17.812C504.877 19.516 504.505 21.184 503.761 22.816C503.017 24.424 501.937 25.756 500.521 26.812C499.129 27.844 497.497 28.36 495.625 28.36ZM496.129 25.372C496.897 25.372 497.629 25 498.325 24.256C499.045 23.512 499.621 22.528 500.053 21.304C500.509 20.056 500.737 18.724 500.737 17.308C500.737 17.044 500.653 16.804 500.485 16.588C500.317 16.372 500.077 16.144 499.765 15.904C499.717 15.88 499.597 15.784 499.405 15.616C499.237 15.448 499.153 15.292 499.153 15.148C499.153 15.052 499.177 14.92 499.225 14.752C499.273 14.56 499.297 14.428 499.297 14.356C499.297 14.02 498.877 13.852 498.037 13.852C497.053 13.852 496.177 14.248 495.409 15.04C494.665 15.808 494.077 16.804 493.645 18.028C493.237 19.228 493.033 20.44 493.033 21.664C493.033 22.36 493.189 22.996 493.501 23.572C493.837 24.124 494.245 24.568 494.725 24.904C495.205 25.216 495.673 25.372 496.129 25.372ZM517.985 20.224C517.193 22.864 516.149 24.928 514.853 26.416C513.581 27.904 512.273 28.648 510.929 28.648C508.457 28.648 507.221 26.272 507.221 21.52C507.221 19.792 507.281 18.34 507.401 17.164C507.521 15.988 507.725 14.728 508.013 13.384C508.085 12.952 508.313 12.592 508.697 12.304C509.105 12.016 509.633 11.872 510.281 11.872C511.529 11.872 512.165 12.424 512.189 13.528C512.189 13.648 512.129 14.044 512.009 14.716C511.769 16.084 511.565 17.308 511.397 18.388C511.253 19.468 511.181 20.56 511.181 21.664C511.181 23.92 511.529 25.048 512.225 25.048C512.873 25.048 513.521 24.328 514.169 22.888C514.841 21.424 515.441 19.684 515.969 17.668C516.497 15.652 516.893 13.816 517.157 12.16C517.205 11.848 517.433 11.572 517.841 11.332C518.273 11.092 518.645 10.972 518.957 10.972C519.653 10.972 520.229 11.128 520.685 11.44C521.165 11.728 521.405 12.148 521.405 12.7C521.405 12.844 521.333 13.312 521.189 14.104C520.541 17.608 520.217 20.284 520.217 22.132C520.217 22.996 520.337 23.704 520.577 24.256C520.841 24.784 521.177 25.048 521.585 25.048C522.377 25.048 523.097 24.22 523.745 22.564C524.417 20.908 524.957 18.916 525.365 16.588C525.773 14.26 526.001 12.16 526.049 10.288C526.073 9.976 526.229 9.748 526.517 9.604C526.829 9.436 527.201 9.352 527.633 9.352C528.161 9.352 528.677 9.448 529.181 9.64C529.685 9.808 529.949 10 529.973 10.216C529.085 22.504 526.157 28.648 521.189 28.648C519.965 28.648 519.113 28.144 518.633 27.136C518.153 26.128 517.913 24.772 517.913 23.068C517.913 22.42 517.985 21.472 518.129 20.224H517.985ZM545.963 24.04C545.963 24.592 546.107 25.036 546.395 25.372C546.683 25.684 547.091 25.84 547.619 25.84C548.339 25.84 548.927 25.636 549.383 25.228C549.863 24.796 550.367 24.196 550.895 23.428C551.279 22.876 551.591 22.48 551.831 22.24C552.071 22 552.347 21.88 552.659 21.88C553.283 21.88 553.727 21.964 553.991 22.132C554.255 22.276 554.387 22.588 554.387 23.068C554.387 23.284 554.363 23.548 554.315 23.86C554.267 24.148 554.207 24.364 554.135 24.508C553.559 25.732 552.611 26.788 551.291 27.676C549.995 28.564 548.519 29.008 546.863 29.008C545.207 29.008 543.959 28.612 543.119 27.82C542.279 27.004 541.859 25.852 541.859 24.364C541.859 24.148 541.967 23.584 542.183 22.672C542.399 21.76 542.675 20.668 543.011 19.396L544.019 15.292L541.823 15.472C541.535 15.472 541.319 15.364 541.175 15.148C541.031 14.932 540.959 14.668 540.959 14.356C540.959 13.756 541.175 13.156 541.607 12.556C541.655 12.484 541.895 12.412 542.327 12.34C542.759 12.268 543.287 12.196 543.911 12.124L544.883 12.016L546.107 6.76C546.347 6.136 546.707 5.656 547.187 5.32C547.691 4.96 548.159 4.78 548.591 4.78C549.071 4.78 549.479 4.924 549.815 5.212C550.151 5.5 550.331 5.836 550.355 6.22L549.059 11.62C549.995 11.5 550.859 11.404 551.651 11.332C552.467 11.236 553.103 11.188 553.559 11.188C554.471 11.188 554.927 11.716 554.927 12.772C554.927 13.18 554.747 13.552 554.387 13.888C554.051 14.2 553.679 14.392 553.271 14.464L548.231 14.968L545.963 24.04ZM563.298 28.756C561.186 28.756 559.542 28.036 558.366 26.596C557.19 25.156 556.602 23.32 556.602 21.088C556.602 19.216 557.046 17.452 557.934 15.796C558.846 14.14 560.082 12.808 561.642 11.8C563.202 10.792 564.918 10.288 566.79 10.288C568.638 10.288 570.15 10.9 571.326 12.124C572.526 13.324 573.126 15.1 573.126 17.452C573.126 19.108 572.67 20.824 571.758 22.6C570.846 24.376 569.622 25.852 568.086 27.028C566.574 28.18 564.978 28.756 563.298 28.756ZM563.838 25.876C564.606 25.876 565.374 25.396 566.142 24.436C566.934 23.476 567.582 22.264 568.086 20.8C568.59 19.336 568.842 17.908 568.842 16.516C568.842 14.38 567.954 13.312 566.178 13.312C565.194 13.312 564.294 13.78 563.478 14.716C562.662 15.652 562.014 16.816 561.534 18.208C561.054 19.576 560.814 20.86 560.814 22.06C560.814 22.756 560.97 23.404 561.282 24.004C561.594 24.58 561.978 25.036 562.434 25.372C562.914 25.708 563.382 25.876 563.838 25.876ZM584.171 26.812C582.371 28.012 580.655 28.612 579.023 28.612C578.399 28.612 577.691 28.408 576.899 28C576.131 27.592 575.471 27.04 574.919 26.344C574.367 25.648 574.091 24.88 574.091 24.04C574.091 22.696 574.535 20.98 575.423 18.892C576.311 16.804 577.559 14.98 579.167 13.42C580.799 11.86 582.695 11.08 584.855 11.08C586.679 11.08 588.203 11.38 589.427 11.98C590.651 12.58 591.263 13.444 591.263 14.572C591.263 14.644 591.215 14.896 591.119 15.328C589.895 20.632 588.803 25.048 587.843 28.576C587.291 30.64 586.523 32.224 585.539 33.328C584.579 34.456 583.487 35.212 582.263 35.596C581.063 35.98 579.647 36.172 578.015 36.172C576.839 36.172 575.771 35.86 574.811 35.236C573.875 34.612 573.407 33.724 573.407 32.572C573.407 31.756 573.923 31.348 574.955 31.348C575.195 31.348 575.471 31.528 575.783 31.888C576.167 32.296 576.563 32.608 576.971 32.824C577.403 33.064 578.027 33.184 578.843 33.184C580.163 33.184 581.303 32.632 582.263 31.528C583.223 30.424 583.859 28.852 584.171 26.812ZM584.927 23.428C585.119 22.372 585.443 21.124 585.899 19.684C586.379 18.22 587.015 16.756 587.807 15.292C587.687 14.812 587.303 14.5 586.655 14.356C586.031 14.188 585.467 14.104 584.963 14.104C584.075 14.104 583.115 14.704 582.083 15.904C581.051 17.104 580.163 18.508 579.419 20.116C578.699 21.7 578.339 22.984 578.339 23.968C578.339 24.448 578.471 24.796 578.735 25.012C578.999 25.204 579.335 25.3 579.743 25.3C580.295 25.3 581.171 25.096 582.371 24.688C583.595 24.256 584.447 23.836 584.927 23.428ZM599.395 28.756C597.043 28.756 595.327 28.288 594.247 27.352C593.167 26.416 592.627 25.168 592.627 23.608C592.627 21.328 593.191 19.216 594.319 17.272C595.471 15.328 596.995 13.792 598.891 12.664C600.811 11.512 602.875 10.936 605.083 10.936C606.427 10.936 607.555 11.32 608.467 12.088C609.379 12.832 609.835 13.936 609.835 15.4C609.835 17.032 609.223 18.328 607.999 19.288C606.799 20.224 605.275 20.92 603.427 21.376C601.603 21.808 599.407 22.144 596.839 22.384C596.743 22.744 596.695 23.116 596.695 23.5C596.695 24.172 596.971 24.688 597.523 25.048C598.099 25.408 598.903 25.588 599.935 25.588C600.703 25.588 601.579 25.432 602.563 25.12C603.571 24.808 604.339 24.292 604.867 23.572C605.155 23.164 605.515 22.84 605.947 22.6C606.403 22.36 606.835 22.24 607.243 22.24C607.627 22.24 607.939 22.372 608.179 22.636C608.419 22.876 608.539 23.248 608.539 23.752C608.251 24.52 607.687 25.3 606.847 26.092C606.007 26.86 604.939 27.496 603.643 28C602.347 28.504 600.931 28.756 599.395 28.756ZM597.847 19.072C598.687 19.048 599.743 18.916 601.015 18.676C602.287 18.436 603.439 18.016 604.471 17.416C605.503 16.792 606.019 15.976 606.019 14.968C606.019 14.68 605.863 14.452 605.551 14.284C605.239 14.092 604.903 13.996 604.543 13.996C603.823 13.996 602.995 14.272 602.059 14.824C601.147 15.376 600.295 16.048 599.503 16.84C598.711 17.632 598.159 18.376 597.847 19.072ZM613.279 15.472C612.991 15.472 612.775 15.364 612.631 15.148C612.487 14.908 612.415 14.608 612.415 14.248C612.415 13.744 612.607 13.18 612.991 12.556C613.207 12.34 614.371 12.112 616.483 11.872L618.031 4.888C618.199 4.12 618.475 3.556 618.859 3.196C619.267 2.812 619.711 2.62 620.191 2.62C620.767 2.62 621.283 2.824 621.739 3.232C622.219 3.64 622.471 4.12 622.495 4.672C622.495 4.816 622.471 5.008 622.423 5.248L620.875 11.44C622.459 11.32 623.479 11.26 623.935 11.26C624.343 11.26 624.727 11.356 625.087 11.548C625.471 11.716 625.771 11.92 625.987 12.16C626.203 12.4 626.311 12.604 626.311 12.772C626.311 13.18 626.143 13.552 625.807 13.888C625.495 14.2 625.135 14.392 624.727 14.464L620.011 14.896L616.915 27.28C616.555 28.288 616.063 28.792 615.439 28.792C614.935 28.792 614.479 28.48 614.071 27.856C613.687 27.232 613.495 26.524 613.495 25.732C613.495 25.42 613.531 25.108 613.603 24.796L615.727 15.256L613.279 15.472ZM631.363 16.12C631.915 15.04 632.671 14.116 633.631 13.348C634.615 12.58 635.611 11.992 636.619 11.584C637.627 11.176 638.455 10.972 639.103 10.972C640.351 10.972 641.251 11.212 641.803 11.692C642.355 12.148 642.631 12.88 642.631 13.888C641.215 17.584 640.279 21.568 639.823 25.84L640.327 27.604C640.039 28.156 639.655 28.588 639.175 28.9C638.695 29.236 637.963 29.404 636.979 29.404C636.403 29.404 635.983 29.212 635.719 28.828C635.455 28.444 635.323 27.964 635.323 27.388C635.323 25.78 635.551 24.016 636.007 22.096C636.487 20.152 637.039 18.172 637.663 16.156C637.903 15.388 638.023 14.992 638.023 14.968C638.023 14.632 637.831 14.464 637.447 14.464C636.943 14.464 636.211 14.836 635.251 15.58C634.291 16.324 633.295 17.584 632.263 19.36C631.231 21.112 630.367 23.416 629.671 26.272C629.647 26.392 629.587 26.644 629.491 27.028C629.395 27.412 629.179 27.688 628.843 27.856C628.507 28.024 627.991 28.108 627.295 28.108C626.455 28.108 625.807 28.024 625.351 27.856C624.895 27.664 624.667 27.304 624.667 26.776C627.811 14.416 629.755 6.688 630.499 3.592C630.475 3.28 630.451 2.872 630.427 2.368C630.427 1.84 630.427 1.432 630.427 1.144C630.499 0.807998 630.751 0.555999 631.183 0.387999C631.639 0.195999 632.095 0.0999987 632.551 0.0999987C633.319 0.0999987 633.967 0.303999 634.495 0.711999C635.023 1.12 635.311 1.636 635.359 2.26L631.363 16.12ZM651.394 28.756C649.018 28.756 647.278 28.288 646.174 27.352C645.094 26.416 644.554 25.168 644.554 23.608C644.554 21.28 645.034 19.168 645.994 17.272C646.954 15.352 648.286 13.852 649.99 12.772C651.694 11.668 653.638 11.116 655.822 11.116C657.19 11.116 658.33 11.5 659.242 12.268C660.178 13.036 660.646 14.176 660.646 15.688C660.646 17.296 660.118 18.556 659.062 19.468C658.03 20.38 656.674 21.04 654.994 21.448C653.338 21.832 651.25 22.144 648.73 22.384C648.658 22.696 648.622 23.068 648.622 23.5C648.622 24.172 648.91 24.688 649.486 25.048C650.062 25.408 650.866 25.588 651.898 25.588C652.642 25.588 653.506 25.432 654.49 25.12C655.498 24.808 656.266 24.292 656.794 23.572C657.106 23.164 657.466 22.84 657.874 22.6C658.306 22.36 658.726 22.24 659.134 22.24C659.518 22.24 659.83 22.372 660.07 22.636C660.334 22.876 660.466 23.248 660.466 23.752C660.202 24.52 659.65 25.3 658.81 26.092C657.97 26.86 656.902 27.496 655.606 28C654.334 28.504 652.93 28.756 651.394 28.756ZM649.666 19.072C651.202 19.048 652.774 18.76 654.382 18.208C655.99 17.632 656.794 16.636 656.794 15.22C656.794 14.884 656.638 14.632 656.326 14.464C656.014 14.272 655.678 14.176 655.318 14.176C654.622 14.176 653.89 14.44 653.122 14.968C652.378 15.472 651.694 16.108 651.07 16.876C650.446 17.62 649.978 18.352 649.666 19.072ZM666.277 26.632C666.253 26.776 666.193 27.064 666.097 27.496C666.025 27.904 665.821 28.192 665.485 28.36C665.173 28.528 664.669 28.612 663.973 28.612C663.181 28.612 662.605 28.528 662.245 28.36C661.885 28.192 661.705 27.832 661.705 27.28C661.777 26.992 662.293 24.94 663.253 21.124C663.949 18.172 664.465 16.096 664.801 14.896C665.161 13.192 665.581 12.076 666.061 11.548C666.541 10.996 667.093 10.72 667.717 10.72C668.557 10.72 669.097 10.84 669.337 11.08C669.601 11.32 669.733 11.632 669.733 12.016L669.301 14.14C670.069 13.204 670.957 12.436 671.965 11.836C672.997 11.212 673.909 10.9 674.701 10.9C675.733 10.9 676.537 11.08 677.113 11.44C677.689 11.8 677.977 12.268 677.977 12.844C677.977 13.276 677.701 13.624 677.149 13.888C676.621 14.128 675.925 14.284 675.061 14.356C673.765 14.476 672.433 15.04 671.065 16.048C669.721 17.056 668.713 18.244 668.041 19.612L666.277 26.632ZM679.998 29.188C679.326 29.188 678.738 28.984 678.234 28.576C677.754 28.168 677.514 27.688 677.514 27.136C677.514 26.32 677.862 25.612 678.558 25.012C679.254 24.412 680.01 24.112 680.826 24.112C681.546 24.112 682.134 24.34 682.59 24.796C683.07 25.252 683.31 25.792 683.31 26.416C683.31 27.16 682.974 27.808 682.302 28.36C681.63 28.912 680.862 29.188 679.998 29.188ZM691.582 11.728C690.958 11.728 690.646 11.476 690.646 10.972C690.646 10.684 690.742 10.36 690.934 10C691.15 9.64 691.45 9.184 691.834 8.632C692.386 7.84 692.794 7.18 693.058 6.652C693.322 6.124 693.454 5.584 693.454 5.032C693.454 4.816 693.406 4.552 693.31 4.24C693.238 3.904 693.202 3.664 693.202 3.52C693.202 2.968 693.31 2.536 693.526 2.224C693.766 1.888 694.294 1.72 695.11 1.72C695.95 1.72 696.526 1.924 696.838 2.332C697.174 2.74 697.342 3.196 697.342 3.7C697.342 5.62 696.058 7.996 693.49 10.828C692.938 11.428 692.302 11.728 691.582 11.728ZM698.566 11.728C697.942 11.728 697.63 11.476 697.63 10.972C697.63 10.684 697.726 10.36 697.918 10C698.134 9.64 698.434 9.184 698.818 8.632C699.37 7.84 699.778 7.18 700.042 6.652C700.306 6.124 700.438 5.584 700.438 5.032C700.438 4.816 700.39 4.552 700.294 4.24C700.222 3.904 700.186 3.664 700.186 3.52C700.186 2.968 700.294 2.536 700.51 2.224C700.75 1.888 701.278 1.72 702.094 1.72C702.934 1.72 703.51 1.924 703.822 2.332C704.158 2.74 704.326 3.196 704.326 3.7C704.326 5.62 703.042 7.996 700.474 10.828C699.922 11.428 699.286 11.728 698.566 11.728ZM273.951 80.08C273.495 79.936 273.183 79.684 273.015 79.324C272.847 78.964 272.763 78.52 272.763 77.992C272.763 77.392 273.363 76.84 274.563 76.336H304.839C305.775 76.744 306.243 77.284 306.243 77.956C306.243 78.388 306.027 78.808 305.595 79.216C305.163 79.624 304.671 79.912 304.119 80.08H273.951ZM337.123 63.664C337.987 64.12 338.419 64.696 338.419 65.392C338.419 65.824 338.179 66.232 337.699 66.616C337.243 66.976 336.727 67.228 336.151 67.372L334.567 67.48C333.847 67.528 332.875 67.6 331.651 67.696C330.427 67.768 328.987 67.876 327.331 68.02L325.711 74.464C327.223 74.224 328.471 74.032 329.455 73.888C330.463 73.744 331.579 73.624 332.803 73.528C333.739 73.936 334.207 74.488 334.207 75.184C334.207 75.616 333.991 76.036 333.559 76.444C333.127 76.852 332.635 77.14 332.083 77.308L330.031 77.524C327.847 77.764 326.095 78.004 324.775 78.244C324.487 79.564 324.079 81.232 323.551 83.248L323.263 84.364C326.455 83.764 329.539 83.344 332.515 83.104C333.451 83.512 333.919 84.064 333.919 84.76C333.919 85.192 333.703 85.612 333.271 86.02C332.839 86.428 332.347 86.716 331.795 86.884C327.235 87.412 324.019 87.856 322.147 88.216C321.931 88.36 321.463 88.432 320.743 88.432C320.071 88.432 319.471 88.12 318.943 87.496C318.439 86.872 318.187 86.224 318.187 85.552C318.187 85.288 318.223 85.036 318.295 84.796L322.399 68.56H322.291C322.267 68.296 322.099 67.972 321.787 67.588C321.763 67.54 321.667 67.396 321.499 67.156C321.331 66.892 321.247 66.64 321.247 66.4C321.295 65.704 321.751 65.152 322.615 64.744C324.415 64.504 326.935 64.276 330.175 64.06C333.415 63.82 335.731 63.688 337.123 63.664ZM342.619 84.04C342.619 84.592 342.763 85.036 343.051 85.372C343.339 85.684 343.747 85.84 344.275 85.84C344.995 85.84 345.583 85.636 346.039 85.228C346.519 84.796 347.023 84.196 347.551 83.428C347.935 82.876 348.247 82.48 348.487 82.24C348.727 82 349.003 81.88 349.315 81.88C349.939 81.88 350.383 81.964 350.647 82.132C350.911 82.276 351.043 82.588 351.043 83.068C351.043 83.284 351.019 83.548 350.971 83.86C350.923 84.148 350.863 84.364 350.791 84.508C350.215 85.732 349.267 86.788 347.947 87.676C346.651 88.564 345.175 89.008 343.519 89.008C341.863 89.008 340.615 88.612 339.775 87.82C338.935 87.004 338.515 85.852 338.515 84.364C338.515 84.148 338.623 83.584 338.839 82.672C339.055 81.76 339.331 80.668 339.667 79.396L340.675 75.292L338.479 75.472C338.191 75.472 337.975 75.364 337.831 75.148C337.687 74.932 337.615 74.668 337.615 74.356C337.615 73.756 337.831 73.156 338.263 72.556C338.311 72.484 338.551 72.412 338.983 72.34C339.415 72.268 339.943 72.196 340.567 72.124L341.539 72.016L342.763 66.76C343.003 66.136 343.363 65.656 343.843 65.32C344.347 64.96 344.815 64.78 345.247 64.78C345.727 64.78 346.135 64.924 346.471 65.212C346.807 65.5 346.987 65.836 347.011 66.22L345.715 71.62C346.651 71.5 347.515 71.404 348.307 71.332C349.123 71.236 349.759 71.188 350.215 71.188C351.127 71.188 351.583 71.716 351.583 72.772C351.583 73.18 351.403 73.552 351.043 73.888C350.707 74.2 350.335 74.392 349.927 74.464L344.887 74.968L342.619 84.04ZM359.954 88.756C357.842 88.756 356.198 88.036 355.022 86.596C353.846 85.156 353.258 83.32 353.258 81.088C353.258 79.216 353.702 77.452 354.59 75.796C355.502 74.14 356.738 72.808 358.298 71.8C359.858 70.792 361.574 70.288 363.446 70.288C365.294 70.288 366.806 70.9 367.982 72.124C369.182 73.324 369.782 75.1 369.782 77.452C369.782 79.108 369.326 80.824 368.414 82.6C367.502 84.376 366.278 85.852 364.742 87.028C363.23 88.18 361.634 88.756 359.954 88.756ZM360.494 85.876C361.262 85.876 362.03 85.396 362.798 84.436C363.59 83.476 364.238 82.264 364.742 80.8C365.246 79.336 365.498 77.908 365.498 76.516C365.498 74.38 364.61 73.312 362.834 73.312C361.85 73.312 360.95 73.78 360.134 74.716C359.318 75.652 358.67 76.816 358.19 78.208C357.71 79.576 357.47 80.86 357.47 82.06C357.47 82.756 357.626 83.404 357.938 84.004C358.25 84.58 358.634 85.036 359.09 85.372C359.57 85.708 360.038 85.876 360.494 85.876ZM374.168 72.628C374.24 72.1 374.324 71.692 374.42 71.404C374.516 71.116 374.696 70.888 374.96 70.72C375.248 70.552 375.668 70.468 376.22 70.468C377.06 70.468 377.624 70.708 377.912 71.188C378.2 71.644 378.38 72.244 378.452 72.988C378.404 73.204 378.368 73.384 378.344 73.528C378.344 73.672 378.32 73.84 378.272 74.032C379.088 73.072 379.868 72.34 380.612 71.836C381.38 71.332 382.268 71.08 383.276 71.08C384.404 71.08 385.316 71.38 386.012 71.98C386.732 72.556 387.152 73.24 387.272 74.032C387.944 72.952 388.796 72.196 389.828 71.764C390.86 71.308 391.916 71.08 392.996 71.08C394.388 71.08 395.372 71.416 395.948 72.088C396.548 72.76 396.848 73.624 396.848 74.68C396.848 75.016 396.8 75.496 396.704 76.12C396.08 79.312 395.444 82.648 394.796 86.128C394.628 86.992 394.448 87.64 394.256 88.072C394.064 88.528 393.776 88.864 393.392 89.08C393.008 89.296 392.456 89.404 391.736 89.404C391.16 89.404 390.74 89.212 390.476 88.828C390.212 88.444 390.08 87.964 390.08 87.388C390.08 87.196 390.104 86.932 390.152 86.596C390.488 84.82 390.908 82.816 391.412 80.584C391.46 80.368 391.628 79.624 391.916 78.352C392.204 77.08 392.348 76.264 392.348 75.904C392.348 75.4 392.24 75.052 392.024 74.86C391.808 74.644 391.556 74.536 391.268 74.536C390.668 74.536 389.912 74.8 389 75.328C388.112 75.856 387.488 76.336 387.128 76.768C386.744 77.992 386.072 80.716 385.112 84.94C384.992 85.444 384.92 85.876 384.896 86.236C384.8 86.764 384.704 87.136 384.608 87.352C384.512 87.568 384.32 87.724 384.032 87.82C383.744 87.916 383.276 87.964 382.628 87.964C380.972 87.964 380.144 87.628 380.144 86.956C380.288 86.596 380.516 85.768 380.828 84.472C381.14 83.152 381.368 82.228 381.512 81.7C381.944 79.804 382.46 77.704 383.06 75.4C383.06 75.184 382.964 75.004 382.772 74.86C382.58 74.716 382.364 74.644 382.124 74.644C381.26 74.644 380.372 75.004 379.46 75.724C378.572 76.444 377.888 77.212 377.408 78.028C377.072 79.324 376.688 80.788 376.256 82.42C375.848 84.028 375.536 85.324 375.32 86.308C375.176 86.98 374.936 87.448 374.6 87.712C374.264 87.976 373.688 88.108 372.872 88.108C372.176 88.108 371.648 88.024 371.288 87.856C370.928 87.664 370.748 87.304 370.748 86.776C370.748 86.512 371.048 85.108 371.648 82.564C372.272 80.02 373.112 76.708 374.168 72.628ZM405.868 88.36C403.756 88.36 402.112 87.64 400.936 86.2C399.76 84.76 399.172 82.924 399.172 80.692C399.172 78.82 399.568 77.104 400.36 75.544C401.176 73.984 402.304 72.76 403.744 71.872C405.208 70.96 406.876 70.504 408.748 70.504C410.836 70.504 412.24 70.684 412.96 71.044C413.176 71.14 413.368 71.296 413.536 71.512C413.704 71.704 413.788 71.896 413.788 72.088C413.788 72.328 413.728 72.58 413.608 72.844C413.512 73.108 413.356 73.312 413.14 73.456C413.692 73.504 414.16 73.78 414.544 74.284C414.928 74.764 415.216 75.328 415.408 75.976C415.6 76.624 415.696 77.188 415.696 77.668C415.696 79.372 415.276 81.052 414.436 82.708C413.62 84.364 412.468 85.72 410.98 86.776C409.492 87.832 407.788 88.36 405.868 88.36ZM406.408 85.372C407.176 85.372 407.956 85 408.748 84.256C409.564 83.488 410.236 82.48 410.764 81.232C411.292 79.984 411.556 78.676 411.556 77.308C411.556 77.044 411.46 76.804 411.268 76.588C411.1 76.372 410.86 76.144 410.548 75.904C410.38 75.784 410.224 75.664 410.08 75.544C409.96 75.4 409.9 75.268 409.9 75.148C409.9 75.052 409.924 74.92 409.972 74.752C410.044 74.584 410.08 74.464 410.08 74.392C410.08 74.032 409.636 73.852 408.748 73.852C407.764 73.852 406.852 74.248 406.012 75.04C405.196 75.832 404.548 76.84 404.068 78.064C403.612 79.288 403.384 80.488 403.384 81.664C403.384 82.36 403.54 82.996 403.852 83.572C404.164 84.124 404.548 84.568 405.004 84.904C405.484 85.216 405.952 85.372 406.408 85.372ZM420.802 70.54C421.93 69.94 422.866 69.64 423.61 69.64C424.426 69.64 424.882 70.06 424.978 70.9L423.538 76.264C425.122 73.984 426.598 72.412 427.966 71.548C429.334 70.66 430.558 70.216 431.638 70.216C432.91 70.216 433.834 70.456 434.41 70.936C435.01 71.392 435.322 72.124 435.346 73.132C434.53 75.34 433.846 77.44 433.294 79.432C432.766 81.424 432.502 83.26 432.502 84.94V85.768C432.502 86.44 432.31 86.884 431.926 87.1C431.566 87.292 430.834 87.388 429.73 87.388C429.298 87.388 428.89 87.316 428.506 87.172C428.146 87.028 427.966 86.788 427.966 86.452C427.966 85.492 428.182 84.088 428.614 82.24C429.046 80.392 429.526 78.568 430.054 76.768C430.606 74.968 430.882 74.116 430.882 74.212C430.882 73.876 430.69 73.708 430.306 73.708C429.802 73.708 428.986 74.152 427.858 75.04C426.73 75.928 425.578 77.32 424.402 79.216C423.226 81.088 422.29 83.44 421.594 86.272C421.57 86.416 421.522 86.68 421.45 87.064C421.378 87.448 421.186 87.724 420.874 87.892C420.562 88.036 420.058 88.108 419.362 88.108C418.57 88.108 417.982 88.024 417.598 87.856C417.214 87.688 417.022 87.328 417.022 86.776L418.102 82.168C418.39 80.92 418.762 79.336 419.218 77.416C419.674 75.472 420.202 73.18 420.802 70.54Z" fill="#949494"/>
</svg>
